G04 EAGLE Gerber RS-274X export*
G75*
%MOMM*%
%FSLAX34Y34*%
%LPD*%
%INBottom Copper*%
%IPPOS*%
%AMOC8*
5,1,8,0,0,1.08239X$1,22.5*%
G01*
%ADD10C,1.308000*%
%ADD11C,1.524000*%
%ADD12C,0.756400*%
%ADD13C,0.304800*%
%ADD14C,0.406400*%

G36*
X105779Y10172D02*
X105779Y10172D01*
X105879Y10174D01*
X105951Y10192D01*
X106025Y10201D01*
X106120Y10235D01*
X106217Y10259D01*
X106283Y10293D01*
X106353Y10318D01*
X106438Y10373D01*
X106527Y10419D01*
X106584Y10467D01*
X106646Y10507D01*
X106716Y10579D01*
X106792Y10644D01*
X106837Y10704D01*
X106888Y10758D01*
X106940Y10844D01*
X107000Y10925D01*
X107029Y10993D01*
X107067Y11057D01*
X107098Y11153D01*
X107138Y11245D01*
X107151Y11318D01*
X107173Y11389D01*
X107181Y11489D01*
X107199Y11588D01*
X107195Y11662D01*
X107201Y11736D01*
X107186Y11836D01*
X107181Y11936D01*
X107161Y12007D01*
X107150Y12081D01*
X107113Y12174D01*
X107085Y12271D01*
X107048Y12336D01*
X107021Y12405D01*
X106964Y12487D01*
X106915Y12575D01*
X106849Y12651D01*
X106822Y12691D01*
X106796Y12715D01*
X106756Y12761D01*
X105637Y13880D01*
X95437Y24080D01*
X94741Y25760D01*
X94741Y29798D01*
X94727Y29924D01*
X94720Y30050D01*
X94707Y30096D01*
X94701Y30144D01*
X94659Y30263D01*
X94624Y30385D01*
X94600Y30427D01*
X94584Y30472D01*
X94515Y30579D01*
X94454Y30689D01*
X94414Y30735D01*
X94395Y30765D01*
X94360Y30799D01*
X94295Y30875D01*
X93954Y31216D01*
X92991Y33540D01*
X92991Y36056D01*
X93954Y38380D01*
X95732Y40158D01*
X98056Y41121D01*
X100572Y41121D01*
X102896Y40158D01*
X104674Y38380D01*
X105637Y36056D01*
X105637Y33540D01*
X104674Y31216D01*
X104333Y30875D01*
X104254Y30776D01*
X104170Y30682D01*
X104146Y30640D01*
X104116Y30602D01*
X104062Y30488D01*
X104001Y30377D01*
X103988Y30331D01*
X103967Y30287D01*
X103941Y30164D01*
X103906Y30042D01*
X103901Y29981D01*
X103894Y29946D01*
X103895Y29898D01*
X103887Y29798D01*
X103887Y29195D01*
X103901Y29069D01*
X103908Y28943D01*
X103921Y28897D01*
X103927Y28849D01*
X103969Y28730D01*
X104004Y28608D01*
X104028Y28566D01*
X104044Y28521D01*
X104113Y28414D01*
X104174Y28304D01*
X104214Y28258D01*
X104233Y28228D01*
X104268Y28194D01*
X104333Y28118D01*
X111176Y21275D01*
X111275Y21196D01*
X111369Y21112D01*
X111411Y21088D01*
X111449Y21058D01*
X111563Y21004D01*
X111674Y20943D01*
X111720Y20930D01*
X111764Y20909D01*
X111887Y20883D01*
X112009Y20848D01*
X112070Y20843D01*
X112105Y20836D01*
X112153Y20837D01*
X112253Y20829D01*
X155971Y20829D01*
X156097Y20843D01*
X156223Y20850D01*
X156269Y20863D01*
X156317Y20869D01*
X156436Y20911D01*
X156558Y20946D01*
X156600Y20970D01*
X156645Y20986D01*
X156752Y21055D01*
X156862Y21116D01*
X156908Y21156D01*
X156938Y21175D01*
X156972Y21210D01*
X157048Y21275D01*
X177861Y42088D01*
X177940Y42187D01*
X178024Y42281D01*
X178048Y42323D01*
X178078Y42361D01*
X178132Y42475D01*
X178193Y42586D01*
X178206Y42632D01*
X178227Y42676D01*
X178253Y42799D01*
X178288Y42921D01*
X178293Y42982D01*
X178300Y43017D01*
X178299Y43065D01*
X178307Y43165D01*
X178307Y98446D01*
X179003Y100126D01*
X192482Y113605D01*
X194162Y114301D01*
X195549Y114301D01*
X195699Y114318D01*
X195848Y114330D01*
X195871Y114338D01*
X195895Y114341D01*
X196037Y114391D01*
X196180Y114438D01*
X196201Y114450D01*
X196224Y114458D01*
X196350Y114540D01*
X196479Y114617D01*
X196496Y114634D01*
X196516Y114647D01*
X196621Y114755D01*
X196729Y114860D01*
X196742Y114880D01*
X196759Y114898D01*
X196836Y115027D01*
X196917Y115153D01*
X196925Y115176D01*
X196937Y115197D01*
X196983Y115340D01*
X197034Y115482D01*
X197036Y115506D01*
X197044Y115529D01*
X197056Y115678D01*
X197073Y115828D01*
X197070Y115852D01*
X197072Y115876D01*
X197049Y116025D01*
X197032Y116174D01*
X197023Y116202D01*
X197020Y116221D01*
X197002Y116265D01*
X196957Y116407D01*
X196877Y116598D01*
X196877Y117081D01*
X196863Y117207D01*
X196856Y117333D01*
X196843Y117379D01*
X196837Y117427D01*
X196795Y117546D01*
X196760Y117668D01*
X196736Y117710D01*
X196720Y117755D01*
X196651Y117862D01*
X196590Y117972D01*
X196550Y118018D01*
X196531Y118048D01*
X196496Y118082D01*
X196431Y118158D01*
X195402Y119187D01*
X195303Y119266D01*
X195209Y119350D01*
X195167Y119374D01*
X195129Y119404D01*
X195015Y119458D01*
X194904Y119519D01*
X194858Y119532D01*
X194814Y119553D01*
X194691Y119579D01*
X194569Y119614D01*
X194508Y119619D01*
X194473Y119626D01*
X194425Y119625D01*
X194325Y119633D01*
X167560Y119633D01*
X167434Y119619D01*
X167308Y119612D01*
X167262Y119599D01*
X167214Y119593D01*
X167095Y119551D01*
X166973Y119516D01*
X166931Y119492D01*
X166886Y119476D01*
X166779Y119407D01*
X166669Y119346D01*
X166623Y119306D01*
X166593Y119287D01*
X166559Y119252D01*
X166483Y119187D01*
X166142Y118846D01*
X163818Y117883D01*
X161302Y117883D01*
X158978Y118846D01*
X157200Y120624D01*
X156237Y122948D01*
X156237Y125464D01*
X157200Y127788D01*
X158978Y129566D01*
X161302Y130529D01*
X163818Y130529D01*
X166142Y129566D01*
X166483Y129225D01*
X166582Y129146D01*
X166676Y129062D01*
X166718Y129038D01*
X166756Y129008D01*
X166870Y128954D01*
X166981Y128893D01*
X167027Y128880D01*
X167071Y128859D01*
X167194Y128833D01*
X167316Y128798D01*
X167377Y128793D01*
X167412Y128786D01*
X167460Y128787D01*
X167560Y128779D01*
X197760Y128779D01*
X199440Y128083D01*
X202898Y124625D01*
X202997Y124546D01*
X203091Y124462D01*
X203133Y124438D01*
X203171Y124408D01*
X203285Y124354D01*
X203396Y124293D01*
X203442Y124280D01*
X203486Y124259D01*
X203609Y124233D01*
X203731Y124198D01*
X203792Y124193D01*
X203827Y124186D01*
X203875Y124187D01*
X203975Y124179D01*
X204458Y124179D01*
X206782Y123216D01*
X208560Y121438D01*
X209523Y119114D01*
X209523Y116598D01*
X209443Y116407D01*
X209402Y116262D01*
X209356Y116119D01*
X209354Y116095D01*
X209348Y116072D01*
X209340Y115921D01*
X209328Y115772D01*
X209332Y115748D01*
X209331Y115724D01*
X209358Y115576D01*
X209380Y115427D01*
X209389Y115405D01*
X209393Y115381D01*
X209453Y115243D01*
X209509Y115103D01*
X209523Y115083D01*
X209532Y115061D01*
X209622Y114941D01*
X209708Y114817D01*
X209726Y114801D01*
X209740Y114781D01*
X209855Y114684D01*
X209967Y114584D01*
X209988Y114572D01*
X210006Y114556D01*
X210140Y114488D01*
X210272Y114415D01*
X210295Y114409D01*
X210316Y114398D01*
X210462Y114361D01*
X210607Y114320D01*
X210636Y114318D01*
X210655Y114313D01*
X210702Y114313D01*
X210851Y114301D01*
X233187Y114301D01*
X233313Y114315D01*
X233439Y114322D01*
X233485Y114335D01*
X233533Y114341D01*
X233652Y114383D01*
X233774Y114418D01*
X233816Y114442D01*
X233861Y114458D01*
X233968Y114527D01*
X234078Y114588D01*
X234124Y114628D01*
X234154Y114647D01*
X234188Y114682D01*
X234264Y114747D01*
X237071Y117554D01*
X237150Y117653D01*
X237234Y117747D01*
X237258Y117789D01*
X237288Y117827D01*
X237342Y117941D01*
X237403Y118052D01*
X237416Y118098D01*
X237437Y118142D01*
X237463Y118265D01*
X237498Y118387D01*
X237503Y118448D01*
X237510Y118483D01*
X237509Y118531D01*
X237517Y118631D01*
X237517Y119114D01*
X238480Y121438D01*
X240258Y123216D01*
X242582Y124179D01*
X245098Y124179D01*
X247422Y123216D01*
X249200Y121438D01*
X250163Y119114D01*
X250163Y116598D01*
X249200Y114274D01*
X247422Y112496D01*
X245098Y111533D01*
X244615Y111533D01*
X244489Y111519D01*
X244363Y111512D01*
X244317Y111499D01*
X244269Y111493D01*
X244150Y111451D01*
X244028Y111416D01*
X243986Y111392D01*
X243941Y111376D01*
X243834Y111307D01*
X243724Y111246D01*
X243678Y111206D01*
X243648Y111187D01*
X243614Y111152D01*
X243538Y111087D01*
X238302Y105851D01*
X236622Y105155D01*
X197597Y105155D01*
X197471Y105141D01*
X197345Y105134D01*
X197299Y105121D01*
X197251Y105115D01*
X197132Y105073D01*
X197010Y105038D01*
X196968Y105014D01*
X196923Y104998D01*
X196816Y104929D01*
X196706Y104868D01*
X196660Y104828D01*
X196630Y104809D01*
X196596Y104774D01*
X196520Y104709D01*
X187899Y96088D01*
X187820Y95989D01*
X187736Y95895D01*
X187712Y95853D01*
X187682Y95815D01*
X187628Y95701D01*
X187567Y95590D01*
X187554Y95544D01*
X187533Y95500D01*
X187507Y95377D01*
X187472Y95255D01*
X187467Y95194D01*
X187460Y95159D01*
X187461Y95111D01*
X187453Y95011D01*
X187453Y39730D01*
X186757Y38050D01*
X185256Y36549D01*
X161468Y12761D01*
X161406Y12683D01*
X161336Y12610D01*
X161297Y12546D01*
X161251Y12488D01*
X161208Y12397D01*
X161157Y12311D01*
X161134Y12240D01*
X161102Y12173D01*
X161081Y12075D01*
X161051Y11979D01*
X161045Y11905D01*
X161029Y11832D01*
X161031Y11732D01*
X161023Y11632D01*
X161034Y11558D01*
X161035Y11484D01*
X161059Y11387D01*
X161074Y11287D01*
X161102Y11218D01*
X161120Y11146D01*
X161166Y11056D01*
X161203Y10963D01*
X161245Y10902D01*
X161280Y10836D01*
X161345Y10759D01*
X161402Y10677D01*
X161457Y10627D01*
X161505Y10571D01*
X161586Y10511D01*
X161661Y10444D01*
X161726Y10408D01*
X161786Y10363D01*
X161878Y10324D01*
X161966Y10275D01*
X162037Y10255D01*
X162106Y10225D01*
X162204Y10208D01*
X162301Y10180D01*
X162401Y10172D01*
X162449Y10164D01*
X162484Y10166D01*
X162545Y10161D01*
X486666Y10161D01*
X486692Y10164D01*
X486718Y10162D01*
X486865Y10184D01*
X487012Y10201D01*
X487037Y10209D01*
X487063Y10213D01*
X487201Y10268D01*
X487340Y10318D01*
X487362Y10332D01*
X487387Y10342D01*
X487508Y10427D01*
X487633Y10507D01*
X487651Y10526D01*
X487673Y10541D01*
X487772Y10651D01*
X487875Y10758D01*
X487889Y10780D01*
X487906Y10800D01*
X487978Y10930D01*
X488054Y11057D01*
X488062Y11082D01*
X488075Y11105D01*
X488115Y11248D01*
X488160Y11389D01*
X488162Y11415D01*
X488170Y11440D01*
X488189Y11684D01*
X488189Y584200D01*
X488186Y584226D01*
X488188Y584252D01*
X488166Y584399D01*
X488149Y584546D01*
X488141Y584571D01*
X488137Y584597D01*
X488082Y584735D01*
X488032Y584874D01*
X488018Y584896D01*
X488008Y584921D01*
X487923Y585042D01*
X487843Y585167D01*
X487824Y585185D01*
X487809Y585207D01*
X487699Y585306D01*
X487592Y585409D01*
X487570Y585423D01*
X487550Y585440D01*
X487420Y585512D01*
X487293Y585588D01*
X487268Y585596D01*
X487245Y585609D01*
X487102Y585649D01*
X486961Y585694D01*
X486935Y585696D01*
X486910Y585704D01*
X486666Y585723D01*
X456438Y585723D01*
X456412Y585720D01*
X456386Y585722D01*
X456239Y585700D01*
X456092Y585683D01*
X456067Y585675D01*
X456041Y585671D01*
X455903Y585616D01*
X455764Y585566D01*
X455742Y585552D01*
X455717Y585542D01*
X455596Y585457D01*
X455471Y585377D01*
X455453Y585358D01*
X455431Y585343D01*
X455332Y585233D01*
X455229Y585126D01*
X455215Y585104D01*
X455198Y585084D01*
X455126Y584954D01*
X455050Y584827D01*
X455042Y584802D01*
X455029Y584779D01*
X454989Y584636D01*
X454944Y584495D01*
X454942Y584469D01*
X454934Y584444D01*
X454915Y584200D01*
X454915Y582516D01*
X433484Y561085D01*
X353916Y561085D01*
X351089Y563912D01*
X329724Y585277D01*
X329625Y585356D01*
X329532Y585440D01*
X329489Y585464D01*
X329451Y585494D01*
X329337Y585548D01*
X329227Y585609D01*
X329180Y585622D01*
X329136Y585643D01*
X329013Y585669D01*
X328891Y585704D01*
X328830Y585709D01*
X328796Y585716D01*
X328748Y585715D01*
X328647Y585723D01*
X325346Y585723D01*
X325320Y585720D01*
X325294Y585722D01*
X325147Y585700D01*
X325000Y585683D01*
X324975Y585675D01*
X324949Y585671D01*
X324811Y585616D01*
X324672Y585566D01*
X324650Y585552D01*
X324625Y585542D01*
X324504Y585457D01*
X324379Y585377D01*
X324361Y585358D01*
X324339Y585343D01*
X324240Y585233D01*
X324137Y585126D01*
X324123Y585104D01*
X324106Y585084D01*
X324034Y584954D01*
X323958Y584827D01*
X323950Y584802D01*
X323937Y584779D01*
X323897Y584636D01*
X323852Y584495D01*
X323850Y584469D01*
X323842Y584444D01*
X323823Y584200D01*
X323823Y582625D01*
X322860Y580301D01*
X322011Y579452D01*
X321932Y579353D01*
X321848Y579259D01*
X321824Y579216D01*
X321794Y579179D01*
X321740Y579064D01*
X321679Y578954D01*
X321666Y578907D01*
X321645Y578864D01*
X321619Y578740D01*
X321584Y578618D01*
X321579Y578558D01*
X321572Y578523D01*
X321573Y578475D01*
X321565Y578375D01*
X321565Y567784D01*
X303441Y549660D01*
X303362Y549561D01*
X303278Y549468D01*
X303254Y549425D01*
X303224Y549387D01*
X303170Y549273D01*
X303109Y549163D01*
X303096Y549116D01*
X303075Y549072D01*
X303049Y548949D01*
X303014Y548827D01*
X303009Y548766D01*
X303002Y548732D01*
X303003Y548684D01*
X302995Y548583D01*
X302995Y547382D01*
X302032Y545058D01*
X300254Y543280D01*
X297930Y542317D01*
X295414Y542317D01*
X293090Y543280D01*
X291312Y545058D01*
X290349Y547382D01*
X290349Y549898D01*
X291312Y552222D01*
X293090Y554000D01*
X295414Y554963D01*
X296615Y554963D01*
X296741Y554977D01*
X296867Y554984D01*
X296914Y554997D01*
X296962Y555003D01*
X297081Y555045D01*
X297202Y555080D01*
X297244Y555104D01*
X297290Y555120D01*
X297396Y555189D01*
X297506Y555250D01*
X297552Y555290D01*
X297582Y555309D01*
X297616Y555344D01*
X297692Y555409D01*
X312989Y570706D01*
X313068Y570805D01*
X313152Y570898D01*
X313176Y570941D01*
X313206Y570979D01*
X313260Y571093D01*
X313321Y571203D01*
X313334Y571250D01*
X313355Y571294D01*
X313381Y571417D01*
X313416Y571539D01*
X313421Y571600D01*
X313428Y571634D01*
X313427Y571682D01*
X313435Y571783D01*
X313435Y578375D01*
X313434Y578384D01*
X313434Y578385D01*
X313433Y578394D01*
X313421Y578500D01*
X313414Y578626D01*
X313401Y578673D01*
X313395Y578721D01*
X313353Y578840D01*
X313318Y578961D01*
X313294Y579003D01*
X313278Y579049D01*
X313209Y579155D01*
X313148Y579265D01*
X313108Y579312D01*
X313089Y579342D01*
X313054Y579375D01*
X312989Y579452D01*
X312140Y580301D01*
X311177Y582625D01*
X311177Y585140D01*
X312140Y587464D01*
X313918Y589243D01*
X316242Y590205D01*
X318758Y590205D01*
X321082Y589243D01*
X322773Y587551D01*
X322851Y587489D01*
X322924Y587419D01*
X322988Y587381D01*
X323046Y587335D01*
X323137Y587292D01*
X323223Y587240D01*
X323294Y587218D01*
X323361Y587186D01*
X323459Y587165D01*
X323555Y587134D01*
X323629Y587128D01*
X323702Y587112D01*
X323802Y587114D01*
X323902Y587106D01*
X323976Y587117D01*
X324050Y587118D01*
X324147Y587143D01*
X324247Y587158D01*
X324316Y587185D01*
X324388Y587203D01*
X324478Y587249D01*
X324571Y587286D01*
X324632Y587329D01*
X324698Y587363D01*
X324775Y587428D01*
X324857Y587485D01*
X324907Y587541D01*
X324963Y587589D01*
X325023Y587670D01*
X325090Y587744D01*
X325126Y587809D01*
X325171Y587869D01*
X325210Y587961D01*
X325259Y588049D01*
X325279Y588121D01*
X325309Y588189D01*
X325326Y588288D01*
X325354Y588385D01*
X325362Y588485D01*
X325370Y588532D01*
X325368Y588568D01*
X325373Y588628D01*
X325373Y588997D01*
X325370Y589023D01*
X325372Y589048D01*
X325358Y589146D01*
X325352Y589249D01*
X325339Y589296D01*
X325333Y589344D01*
X325324Y589369D01*
X325321Y589393D01*
X325285Y589482D01*
X325256Y589584D01*
X325232Y589626D01*
X325216Y589672D01*
X325200Y589696D01*
X325192Y589716D01*
X325139Y589792D01*
X325086Y589888D01*
X325046Y589935D01*
X325027Y589965D01*
X325004Y589986D01*
X324993Y590003D01*
X324973Y590021D01*
X324927Y590074D01*
X303562Y611439D01*
X303463Y611518D01*
X303370Y611602D01*
X303327Y611626D01*
X303289Y611656D01*
X303175Y611710D01*
X303065Y611771D01*
X303018Y611784D01*
X302974Y611805D01*
X302851Y611831D01*
X302729Y611866D01*
X302668Y611871D01*
X302634Y611878D01*
X302586Y611877D01*
X302485Y611885D01*
X297608Y611885D01*
X297482Y611871D01*
X297356Y611864D01*
X297310Y611851D01*
X297262Y611845D01*
X297143Y611803D01*
X297021Y611768D01*
X296979Y611744D01*
X296934Y611728D01*
X296827Y611659D01*
X296717Y611598D01*
X296671Y611558D01*
X296641Y611539D01*
X296607Y611504D01*
X296600Y611498D01*
X296531Y611439D01*
X295682Y610590D01*
X293358Y609627D01*
X290842Y609627D01*
X290333Y609838D01*
X290188Y609880D01*
X290046Y609925D01*
X290022Y609927D01*
X289998Y609934D01*
X289848Y609941D01*
X289698Y609953D01*
X289674Y609950D01*
X289650Y609951D01*
X289502Y609924D01*
X289354Y609901D01*
X289331Y609892D01*
X289307Y609888D01*
X289169Y609828D01*
X289030Y609773D01*
X289010Y609759D01*
X288988Y609749D01*
X288867Y609659D01*
X288744Y609574D01*
X288727Y609556D01*
X288708Y609541D01*
X288611Y609426D01*
X288510Y609315D01*
X288498Y609294D01*
X288483Y609275D01*
X288414Y609142D01*
X288342Y609010D01*
X288335Y608987D01*
X288324Y608965D01*
X288288Y608820D01*
X288247Y608675D01*
X288245Y608645D01*
X288240Y608627D01*
X288239Y608580D01*
X288227Y608431D01*
X288227Y561879D01*
X281084Y554735D01*
X137334Y554735D01*
X137234Y554724D01*
X137134Y554722D01*
X137062Y554704D01*
X136988Y554695D01*
X136893Y554661D01*
X136796Y554637D01*
X136730Y554603D01*
X136660Y554578D01*
X136575Y554523D01*
X136486Y554477D01*
X136429Y554429D01*
X136367Y554389D01*
X136297Y554317D01*
X136220Y554252D01*
X136176Y554192D01*
X136125Y554138D01*
X136073Y554052D01*
X136013Y553971D01*
X135984Y553903D01*
X135946Y553839D01*
X135915Y553743D01*
X135875Y553651D01*
X135862Y553578D01*
X135839Y553507D01*
X135831Y553407D01*
X135814Y553308D01*
X135817Y553234D01*
X135812Y553160D01*
X135826Y553060D01*
X135832Y552960D01*
X135852Y552889D01*
X135863Y552815D01*
X135900Y552722D01*
X135928Y552625D01*
X135964Y552560D01*
X135992Y552491D01*
X136049Y552409D01*
X136098Y552321D01*
X136163Y552245D01*
X136191Y552205D01*
X136217Y552181D01*
X136257Y552135D01*
X137123Y551269D01*
X138085Y548945D01*
X138085Y546430D01*
X137123Y544106D01*
X136273Y543257D01*
X136195Y543158D01*
X136110Y543064D01*
X136087Y543021D01*
X136057Y542984D01*
X136003Y542869D01*
X135942Y542759D01*
X135928Y542712D01*
X135908Y542669D01*
X135881Y542545D01*
X135847Y542423D01*
X135842Y542363D01*
X135834Y542328D01*
X135835Y542280D01*
X135827Y542180D01*
X135827Y415829D01*
X133769Y413770D01*
X133690Y413671D01*
X133606Y413578D01*
X133582Y413535D01*
X133552Y413497D01*
X133498Y413383D01*
X133437Y413273D01*
X133424Y413226D01*
X133403Y413182D01*
X133377Y413059D01*
X133342Y412937D01*
X133337Y412876D01*
X133330Y412842D01*
X133331Y412794D01*
X133323Y412693D01*
X133323Y411492D01*
X132360Y409168D01*
X130582Y407390D01*
X128258Y406427D01*
X125742Y406427D01*
X123418Y407390D01*
X121640Y409168D01*
X120677Y411492D01*
X120677Y414008D01*
X121640Y416332D01*
X123418Y418110D01*
X125742Y419073D01*
X126175Y419073D01*
X126201Y419076D01*
X126227Y419074D01*
X126373Y419096D01*
X126521Y419113D01*
X126545Y419121D01*
X126571Y419125D01*
X126709Y419180D01*
X126849Y419230D01*
X126871Y419244D01*
X126895Y419254D01*
X127017Y419339D01*
X127142Y419419D01*
X127160Y419438D01*
X127181Y419453D01*
X127280Y419563D01*
X127384Y419670D01*
X127397Y419692D01*
X127415Y419712D01*
X127487Y419842D01*
X127563Y419969D01*
X127571Y419994D01*
X127583Y420017D01*
X127624Y420160D01*
X127669Y420301D01*
X127671Y420327D01*
X127678Y420352D01*
X127698Y420596D01*
X127698Y542180D01*
X127683Y542305D01*
X127677Y542431D01*
X127663Y542478D01*
X127658Y542526D01*
X127615Y542645D01*
X127580Y542766D01*
X127557Y542808D01*
X127540Y542854D01*
X127472Y542960D01*
X127410Y543070D01*
X127371Y543117D01*
X127351Y543147D01*
X127317Y543180D01*
X127252Y543257D01*
X126402Y544106D01*
X125440Y546430D01*
X125440Y548945D01*
X126402Y551269D01*
X127268Y552135D01*
X127331Y552214D01*
X127400Y552286D01*
X127439Y552350D01*
X127485Y552408D01*
X127528Y552499D01*
X127579Y552585D01*
X127602Y552656D01*
X127634Y552723D01*
X127655Y552821D01*
X127686Y552917D01*
X127691Y552991D01*
X127707Y553064D01*
X127705Y553164D01*
X127713Y553264D01*
X127702Y553338D01*
X127701Y553412D01*
X127677Y553509D01*
X127662Y553609D01*
X127634Y553678D01*
X127616Y553750D01*
X127570Y553839D01*
X127533Y553933D01*
X127491Y553994D01*
X127457Y554060D01*
X127391Y554136D01*
X127334Y554219D01*
X127279Y554269D01*
X127231Y554325D01*
X127150Y554385D01*
X127075Y554452D01*
X127010Y554488D01*
X126950Y554533D01*
X126858Y554572D01*
X126770Y554621D01*
X126699Y554641D01*
X126630Y554671D01*
X126532Y554688D01*
X126435Y554716D01*
X126335Y554724D01*
X126287Y554732D01*
X126252Y554730D01*
X126191Y554735D01*
X107188Y554735D01*
X107162Y554732D01*
X107136Y554734D01*
X106989Y554712D01*
X106842Y554695D01*
X106817Y554687D01*
X106791Y554683D01*
X106653Y554628D01*
X106514Y554578D01*
X106492Y554564D01*
X106467Y554554D01*
X106346Y554469D01*
X106221Y554389D01*
X106203Y554370D01*
X106181Y554355D01*
X106082Y554245D01*
X105979Y554138D01*
X105965Y554116D01*
X105948Y554096D01*
X105876Y553966D01*
X105800Y553839D01*
X105792Y553814D01*
X105779Y553791D01*
X105739Y553648D01*
X105694Y553507D01*
X105692Y553481D01*
X105684Y553456D01*
X105665Y553212D01*
X105665Y461866D01*
X96934Y453135D01*
X49702Y453135D01*
X49626Y453127D01*
X49550Y453128D01*
X49454Y453107D01*
X49356Y453095D01*
X49284Y453070D01*
X49209Y453053D01*
X49120Y453011D01*
X49028Y452978D01*
X48964Y452936D01*
X48895Y452904D01*
X48818Y452842D01*
X48735Y452789D01*
X48682Y452734D01*
X48622Y452686D01*
X48561Y452609D01*
X48493Y452538D01*
X48453Y452473D01*
X48406Y452413D01*
X48338Y452280D01*
X48314Y452239D01*
X48308Y452221D01*
X48295Y452195D01*
X47984Y451444D01*
X45126Y448586D01*
X41391Y447039D01*
X22109Y447039D01*
X18374Y448586D01*
X15516Y451444D01*
X13969Y455179D01*
X13969Y459221D01*
X15516Y462956D01*
X18374Y465814D01*
X22109Y467361D01*
X41391Y467361D01*
X45126Y465814D01*
X47984Y462956D01*
X48295Y462205D01*
X48332Y462138D01*
X48360Y462067D01*
X48416Y461986D01*
X48464Y461900D01*
X48515Y461844D01*
X48559Y461781D01*
X48632Y461715D01*
X48698Y461642D01*
X48761Y461599D01*
X48818Y461548D01*
X48904Y461500D01*
X48985Y461444D01*
X49056Y461416D01*
X49123Y461379D01*
X49218Y461352D01*
X49309Y461316D01*
X49385Y461305D01*
X49458Y461284D01*
X49607Y461272D01*
X49654Y461265D01*
X49673Y461267D01*
X49702Y461265D01*
X92935Y461265D01*
X93061Y461279D01*
X93187Y461286D01*
X93234Y461299D01*
X93282Y461305D01*
X93401Y461347D01*
X93522Y461382D01*
X93564Y461406D01*
X93610Y461422D01*
X93716Y461491D01*
X93826Y461552D01*
X93872Y461592D01*
X93902Y461611D01*
X93936Y461646D01*
X94012Y461711D01*
X97089Y464788D01*
X97168Y464887D01*
X97252Y464980D01*
X97276Y465023D01*
X97306Y465061D01*
X97360Y465175D01*
X97421Y465285D01*
X97434Y465332D01*
X97455Y465376D01*
X97481Y465499D01*
X97516Y465621D01*
X97521Y465682D01*
X97528Y465716D01*
X97527Y465764D01*
X97535Y465865D01*
X97535Y557309D01*
X103091Y562865D01*
X277085Y562865D01*
X277211Y562879D01*
X277337Y562886D01*
X277384Y562899D01*
X277432Y562905D01*
X277551Y562947D01*
X277672Y562982D01*
X277714Y563006D01*
X277760Y563022D01*
X277866Y563091D01*
X277976Y563152D01*
X278022Y563192D01*
X278052Y563211D01*
X278086Y563246D01*
X278162Y563311D01*
X279652Y564800D01*
X279730Y564899D01*
X279815Y564993D01*
X279838Y565035D01*
X279868Y565073D01*
X279922Y565187D01*
X279983Y565298D01*
X279997Y565344D01*
X280017Y565388D01*
X280044Y565512D01*
X280078Y565633D01*
X280083Y565694D01*
X280091Y565729D01*
X280090Y565777D01*
X280098Y565877D01*
X280098Y748573D01*
X280083Y748698D01*
X280077Y748825D01*
X280063Y748871D01*
X280058Y748919D01*
X280015Y749038D01*
X279980Y749160D01*
X279957Y749202D01*
X279940Y749247D01*
X279872Y749353D01*
X279810Y749464D01*
X279771Y749510D01*
X279751Y749540D01*
X279717Y749574D01*
X279652Y749650D01*
X274070Y755231D01*
X273971Y755310D01*
X273878Y755394D01*
X273835Y755418D01*
X273797Y755448D01*
X273683Y755502D01*
X273573Y755563D01*
X273526Y755576D01*
X273482Y755597D01*
X273359Y755623D01*
X273237Y755658D01*
X273176Y755663D01*
X273142Y755670D01*
X273094Y755669D01*
X272993Y755677D01*
X271792Y755677D01*
X269468Y756640D01*
X267690Y758418D01*
X266727Y760742D01*
X266727Y763258D01*
X267690Y765582D01*
X269468Y767360D01*
X271792Y768323D01*
X274308Y768323D01*
X276632Y767360D01*
X278410Y765582D01*
X279373Y763258D01*
X279373Y762057D01*
X279387Y761931D01*
X279394Y761805D01*
X279407Y761758D01*
X279413Y761710D01*
X279455Y761591D01*
X279490Y761470D01*
X279514Y761428D01*
X279530Y761382D01*
X279599Y761276D01*
X279660Y761166D01*
X279700Y761120D01*
X279719Y761090D01*
X279754Y761056D01*
X279819Y760980D01*
X288227Y752571D01*
X288227Y648869D01*
X288244Y648720D01*
X288257Y648570D01*
X288264Y648547D01*
X288267Y648523D01*
X288318Y648382D01*
X288364Y648238D01*
X288376Y648218D01*
X288385Y648195D01*
X288466Y648068D01*
X288544Y647940D01*
X288560Y647922D01*
X288574Y647902D01*
X288682Y647797D01*
X288786Y647690D01*
X288807Y647677D01*
X288824Y647660D01*
X288953Y647583D01*
X289080Y647502D01*
X289103Y647493D01*
X289123Y647481D01*
X289266Y647435D01*
X289408Y647385D01*
X289432Y647382D01*
X289455Y647375D01*
X289605Y647363D01*
X289755Y647346D01*
X289779Y647349D01*
X289803Y647347D01*
X289951Y647369D01*
X290101Y647387D01*
X290129Y647396D01*
X290147Y647399D01*
X290191Y647416D01*
X290333Y647462D01*
X290842Y647673D01*
X292043Y647673D01*
X292169Y647687D01*
X292295Y647694D01*
X292342Y647707D01*
X292390Y647713D01*
X292509Y647755D01*
X292630Y647790D01*
X292672Y647814D01*
X292718Y647830D01*
X292824Y647899D01*
X292934Y647960D01*
X292980Y648000D01*
X293010Y648019D01*
X293044Y648054D01*
X293120Y648119D01*
X293939Y648938D01*
X294018Y649037D01*
X294102Y649130D01*
X294126Y649173D01*
X294156Y649211D01*
X294210Y649325D01*
X294271Y649435D01*
X294284Y649482D01*
X294305Y649526D01*
X294331Y649649D01*
X294366Y649771D01*
X294371Y649832D01*
X294378Y649866D01*
X294377Y649914D01*
X294385Y650015D01*
X294385Y738284D01*
X303116Y747015D01*
X323850Y747015D01*
X323876Y747018D01*
X323902Y747016D01*
X324049Y747038D01*
X324196Y747055D01*
X324221Y747063D01*
X324247Y747067D01*
X324385Y747122D01*
X324524Y747172D01*
X324546Y747186D01*
X324571Y747196D01*
X324692Y747281D01*
X324817Y747361D01*
X324835Y747380D01*
X324857Y747395D01*
X324956Y747505D01*
X325059Y747612D01*
X325073Y747634D01*
X325090Y747654D01*
X325162Y747784D01*
X325238Y747911D01*
X325246Y747936D01*
X325259Y747959D01*
X325299Y748102D01*
X325344Y748243D01*
X325346Y748269D01*
X325354Y748294D01*
X325373Y748538D01*
X325373Y788316D01*
X325370Y788342D01*
X325372Y788368D01*
X325350Y788515D01*
X325333Y788662D01*
X325325Y788687D01*
X325321Y788713D01*
X325266Y788851D01*
X325216Y788990D01*
X325202Y789012D01*
X325192Y789037D01*
X325107Y789158D01*
X325027Y789283D01*
X325008Y789301D01*
X324993Y789323D01*
X324883Y789422D01*
X324776Y789525D01*
X324754Y789539D01*
X324734Y789556D01*
X324604Y789628D01*
X324477Y789704D01*
X324452Y789712D01*
X324429Y789725D01*
X324286Y789765D01*
X324145Y789810D01*
X324119Y789812D01*
X324094Y789820D01*
X323850Y789839D01*
X82550Y789839D01*
X82524Y789836D01*
X82498Y789838D01*
X82351Y789816D01*
X82204Y789799D01*
X82179Y789791D01*
X82153Y789787D01*
X82015Y789732D01*
X81876Y789682D01*
X81854Y789668D01*
X81829Y789658D01*
X81708Y789573D01*
X81583Y789493D01*
X81565Y789474D01*
X81543Y789459D01*
X81444Y789349D01*
X81341Y789242D01*
X81327Y789220D01*
X81310Y789200D01*
X81238Y789070D01*
X81162Y788943D01*
X81154Y788918D01*
X81141Y788895D01*
X81101Y788752D01*
X81056Y788611D01*
X81054Y788585D01*
X81046Y788560D01*
X81027Y788316D01*
X81027Y566673D01*
X11684Y566673D01*
X11658Y566670D01*
X11632Y566672D01*
X11485Y566650D01*
X11338Y566633D01*
X11313Y566625D01*
X11287Y566621D01*
X11149Y566566D01*
X11010Y566516D01*
X10988Y566502D01*
X10963Y566492D01*
X10842Y566407D01*
X10717Y566327D01*
X10699Y566308D01*
X10677Y566293D01*
X10578Y566183D01*
X10475Y566076D01*
X10461Y566054D01*
X10444Y566034D01*
X10372Y565904D01*
X10296Y565777D01*
X10288Y565752D01*
X10275Y565729D01*
X10235Y565586D01*
X10190Y565445D01*
X10188Y565419D01*
X10180Y565394D01*
X10161Y565150D01*
X10161Y136964D01*
X10172Y136865D01*
X10174Y136764D01*
X10192Y136692D01*
X10201Y136618D01*
X10234Y136524D01*
X10259Y136426D01*
X10293Y136360D01*
X10318Y136290D01*
X10373Y136206D01*
X10419Y136116D01*
X10467Y136060D01*
X10507Y135997D01*
X10579Y135928D01*
X10644Y135851D01*
X10704Y135807D01*
X10758Y135755D01*
X10844Y135704D01*
X10925Y135644D01*
X10993Y135614D01*
X11057Y135576D01*
X11153Y135546D01*
X11245Y135506D01*
X11318Y135493D01*
X11389Y135470D01*
X11489Y135462D01*
X11588Y135444D01*
X11662Y135448D01*
X11736Y135442D01*
X11836Y135457D01*
X11936Y135462D01*
X12007Y135483D01*
X12081Y135494D01*
X12174Y135531D01*
X12271Y135559D01*
X12336Y135595D01*
X12405Y135623D01*
X12487Y135680D01*
X12575Y135729D01*
X12651Y135794D01*
X12691Y135821D01*
X12715Y135848D01*
X12761Y135887D01*
X16079Y139205D01*
X21283Y141361D01*
X26917Y141361D01*
X32121Y139205D01*
X36105Y135221D01*
X38261Y130017D01*
X38261Y124383D01*
X36105Y119179D01*
X32121Y115195D01*
X26917Y113039D01*
X21283Y113039D01*
X16079Y115195D01*
X12761Y118513D01*
X12683Y118575D01*
X12610Y118645D01*
X12546Y118683D01*
X12488Y118729D01*
X12397Y118772D01*
X12311Y118824D01*
X12240Y118846D01*
X12173Y118878D01*
X12075Y118899D01*
X11979Y118930D01*
X11905Y118936D01*
X11832Y118952D01*
X11732Y118950D01*
X11632Y118958D01*
X11558Y118947D01*
X11484Y118946D01*
X11387Y118921D01*
X11287Y118906D01*
X11218Y118879D01*
X11146Y118861D01*
X11057Y118815D01*
X10963Y118777D01*
X10902Y118735D01*
X10836Y118701D01*
X10760Y118636D01*
X10677Y118579D01*
X10627Y118523D01*
X10571Y118475D01*
X10511Y118394D01*
X10444Y118320D01*
X10408Y118255D01*
X10363Y118195D01*
X10324Y118103D01*
X10275Y118015D01*
X10255Y117943D01*
X10225Y117875D01*
X10208Y117776D01*
X10180Y117679D01*
X10172Y117579D01*
X10164Y117532D01*
X10166Y117496D01*
X10161Y117436D01*
X10161Y34964D01*
X10172Y34865D01*
X10174Y34764D01*
X10192Y34692D01*
X10201Y34618D01*
X10234Y34524D01*
X10259Y34426D01*
X10293Y34360D01*
X10318Y34290D01*
X10373Y34206D01*
X10419Y34116D01*
X10467Y34060D01*
X10507Y33997D01*
X10579Y33928D01*
X10644Y33851D01*
X10704Y33807D01*
X10758Y33755D01*
X10844Y33704D01*
X10925Y33644D01*
X10993Y33614D01*
X11057Y33576D01*
X11153Y33546D01*
X11245Y33506D01*
X11318Y33493D01*
X11389Y33470D01*
X11489Y33462D01*
X11588Y33444D01*
X11662Y33448D01*
X11736Y33442D01*
X11836Y33457D01*
X11936Y33462D01*
X12007Y33483D01*
X12081Y33494D01*
X12174Y33531D01*
X12271Y33559D01*
X12336Y33595D01*
X12405Y33623D01*
X12487Y33680D01*
X12575Y33729D01*
X12651Y33794D01*
X12691Y33821D01*
X12715Y33848D01*
X12761Y33887D01*
X16079Y37205D01*
X21283Y39361D01*
X26917Y39361D01*
X32121Y37205D01*
X36105Y33221D01*
X38261Y28017D01*
X38261Y22383D01*
X36105Y17179D01*
X32121Y13195D01*
X31871Y13091D01*
X31827Y13067D01*
X31779Y13050D01*
X31675Y12982D01*
X31566Y12922D01*
X31529Y12888D01*
X31486Y12861D01*
X31400Y12771D01*
X31308Y12688D01*
X31279Y12646D01*
X31244Y12610D01*
X31180Y12503D01*
X31110Y12401D01*
X31091Y12354D01*
X31065Y12311D01*
X31028Y12193D01*
X30982Y12077D01*
X30975Y12027D01*
X30959Y11979D01*
X30949Y11856D01*
X30931Y11732D01*
X30935Y11682D01*
X30931Y11632D01*
X30950Y11509D01*
X30960Y11385D01*
X30975Y11337D01*
X30983Y11287D01*
X31029Y11171D01*
X31067Y11053D01*
X31093Y11010D01*
X31112Y10963D01*
X31183Y10861D01*
X31247Y10755D01*
X31282Y10718D01*
X31311Y10677D01*
X31403Y10594D01*
X31490Y10505D01*
X31532Y10477D01*
X31569Y10444D01*
X31678Y10383D01*
X31783Y10316D01*
X31830Y10299D01*
X31874Y10275D01*
X31994Y10241D01*
X32111Y10200D01*
X32161Y10194D01*
X32210Y10180D01*
X32454Y10161D01*
X105679Y10161D01*
X105779Y10172D01*
G37*
%LPC*%
G36*
X392442Y82577D02*
X392442Y82577D01*
X390118Y83540D01*
X388340Y85318D01*
X387377Y87642D01*
X387377Y90158D01*
X388340Y92482D01*
X388681Y92823D01*
X388760Y92922D01*
X388844Y93016D01*
X388868Y93058D01*
X388898Y93096D01*
X388952Y93210D01*
X389013Y93321D01*
X389026Y93367D01*
X389047Y93411D01*
X389073Y93534D01*
X389108Y93656D01*
X389113Y93717D01*
X389120Y93752D01*
X389119Y93800D01*
X389127Y93900D01*
X389127Y111775D01*
X389113Y111901D01*
X389106Y112027D01*
X389093Y112073D01*
X389087Y112121D01*
X389045Y112240D01*
X389010Y112362D01*
X388986Y112404D01*
X388970Y112449D01*
X388901Y112556D01*
X388840Y112666D01*
X388800Y112712D01*
X388781Y112742D01*
X388746Y112776D01*
X388681Y112852D01*
X385902Y115631D01*
X385803Y115710D01*
X385709Y115794D01*
X385667Y115818D01*
X385629Y115848D01*
X385515Y115902D01*
X385404Y115963D01*
X385358Y115976D01*
X385314Y115997D01*
X385191Y116023D01*
X385069Y116058D01*
X385008Y116063D01*
X384973Y116070D01*
X384925Y116069D01*
X384825Y116077D01*
X367390Y116077D01*
X365710Y116773D01*
X345373Y137110D01*
X344677Y138790D01*
X344677Y204110D01*
X345373Y205790D01*
X353010Y213427D01*
X354690Y214123D01*
X436387Y214123D01*
X436513Y214137D01*
X436639Y214144D01*
X436685Y214157D01*
X436733Y214163D01*
X436852Y214205D01*
X436974Y214240D01*
X437016Y214264D01*
X437061Y214280D01*
X437168Y214349D01*
X437278Y214410D01*
X437324Y214450D01*
X437354Y214469D01*
X437388Y214504D01*
X437464Y214569D01*
X442759Y219863D01*
X442838Y219964D01*
X442924Y220060D01*
X442946Y220100D01*
X442975Y220136D01*
X443030Y220253D01*
X443092Y220365D01*
X443104Y220410D01*
X443124Y220451D01*
X443151Y220577D01*
X443186Y220701D01*
X443190Y220759D01*
X443197Y220792D01*
X443197Y220841D01*
X443205Y220945D01*
X443123Y250498D01*
X443117Y250546D01*
X443120Y250594D01*
X443097Y250719D01*
X443082Y250844D01*
X443066Y250890D01*
X443057Y250937D01*
X443007Y251053D01*
X442964Y251172D01*
X442937Y251212D01*
X442918Y251257D01*
X442843Y251358D01*
X442774Y251464D01*
X442739Y251498D01*
X442710Y251536D01*
X442614Y251618D01*
X442522Y251706D01*
X442481Y251731D01*
X442444Y251762D01*
X442332Y251819D01*
X442223Y251884D01*
X442177Y251898D01*
X442134Y251920D01*
X442011Y251951D01*
X441891Y251989D01*
X441843Y251993D01*
X441796Y252005D01*
X441669Y252006D01*
X441543Y252016D01*
X441495Y252009D01*
X441447Y252010D01*
X441324Y251983D01*
X441199Y251963D01*
X441154Y251946D01*
X441107Y251935D01*
X440992Y251881D01*
X440875Y251834D01*
X440836Y251806D01*
X440792Y251786D01*
X440693Y251707D01*
X440590Y251634D01*
X440557Y251598D01*
X440520Y251568D01*
X440441Y251469D01*
X440357Y251375D01*
X440334Y251332D01*
X440304Y251295D01*
X440192Y251077D01*
X439446Y249275D01*
X437668Y247497D01*
X435249Y246495D01*
X435243Y246494D01*
X435218Y246486D01*
X435192Y246482D01*
X435054Y246427D01*
X434915Y246377D01*
X434892Y246363D01*
X434868Y246353D01*
X434747Y246268D01*
X434622Y246188D01*
X434603Y246169D01*
X434582Y246154D01*
X434483Y246044D01*
X434380Y245937D01*
X434366Y245915D01*
X434348Y245895D01*
X434277Y245765D01*
X434201Y245638D01*
X434193Y245613D01*
X434180Y245590D01*
X434140Y245447D01*
X434094Y245306D01*
X434092Y245280D01*
X434085Y245255D01*
X434066Y245011D01*
X434066Y231467D01*
X427134Y224535D01*
X329638Y224535D01*
X309912Y244261D01*
X309813Y244340D01*
X309720Y244424D01*
X309677Y244448D01*
X309639Y244478D01*
X309525Y244532D01*
X309415Y244593D01*
X309368Y244606D01*
X309324Y244626D01*
X309201Y244653D01*
X309079Y244687D01*
X309018Y244692D01*
X308984Y244700D01*
X308936Y244699D01*
X308835Y244707D01*
X257544Y244707D01*
X238538Y263713D01*
X238439Y263792D01*
X238346Y263876D01*
X238303Y263900D01*
X238265Y263930D01*
X238151Y263984D01*
X238041Y264045D01*
X237994Y264058D01*
X237950Y264079D01*
X237827Y264105D01*
X237705Y264140D01*
X237644Y264145D01*
X237610Y264152D01*
X237562Y264151D01*
X237461Y264159D01*
X74596Y264159D01*
X74470Y264145D01*
X74344Y264138D01*
X74298Y264125D01*
X74250Y264119D01*
X74131Y264077D01*
X74009Y264042D01*
X73967Y264018D01*
X73922Y264002D01*
X73815Y263933D01*
X73705Y263872D01*
X73659Y263832D01*
X73629Y263813D01*
X73595Y263778D01*
X73519Y263713D01*
X72670Y262864D01*
X70346Y261901D01*
X67830Y261901D01*
X65506Y262864D01*
X63728Y264642D01*
X62765Y266966D01*
X62765Y269482D01*
X63728Y271806D01*
X65506Y273584D01*
X67830Y274547D01*
X70346Y274547D01*
X72670Y273584D01*
X73519Y272735D01*
X73618Y272656D01*
X73712Y272572D01*
X73754Y272548D01*
X73792Y272518D01*
X73906Y272464D01*
X74017Y272403D01*
X74063Y272390D01*
X74107Y272369D01*
X74230Y272343D01*
X74352Y272308D01*
X74413Y272303D01*
X74448Y272296D01*
X74496Y272297D01*
X74596Y272289D01*
X84980Y272289D01*
X85079Y272300D01*
X85180Y272302D01*
X85252Y272320D01*
X85326Y272329D01*
X85421Y272363D01*
X85518Y272387D01*
X85584Y272421D01*
X85654Y272446D01*
X85738Y272501D01*
X85828Y272547D01*
X85884Y272595D01*
X85947Y272635D01*
X86017Y272707D01*
X86093Y272772D01*
X86137Y272832D01*
X86189Y272886D01*
X86241Y272972D01*
X86300Y273053D01*
X86330Y273121D01*
X86368Y273185D01*
X86398Y273281D01*
X86438Y273373D01*
X86451Y273446D01*
X86474Y273517D01*
X86482Y273617D01*
X86500Y273716D01*
X86496Y273790D01*
X86502Y273864D01*
X86487Y273964D01*
X86482Y274064D01*
X86461Y274135D01*
X86450Y274209D01*
X86413Y274302D01*
X86385Y274399D01*
X86349Y274464D01*
X86322Y274533D01*
X86264Y274615D01*
X86215Y274703D01*
X86150Y274779D01*
X86123Y274819D01*
X86096Y274843D01*
X86057Y274889D01*
X85127Y275818D01*
X84165Y278142D01*
X84165Y280658D01*
X85127Y282982D01*
X85977Y283831D01*
X86055Y283930D01*
X86140Y284024D01*
X86163Y284066D01*
X86193Y284104D01*
X86247Y284218D01*
X86308Y284329D01*
X86322Y284375D01*
X86342Y284419D01*
X86369Y284542D01*
X86403Y284664D01*
X86408Y284725D01*
X86416Y284760D01*
X86415Y284808D01*
X86423Y284908D01*
X86423Y345330D01*
X86408Y345455D01*
X86402Y345581D01*
X86388Y345628D01*
X86383Y345676D01*
X86340Y345795D01*
X86305Y345916D01*
X86282Y345958D01*
X86265Y346004D01*
X86197Y346110D01*
X86135Y346220D01*
X86096Y346267D01*
X86076Y346297D01*
X86042Y346330D01*
X85977Y346407D01*
X85127Y347256D01*
X84165Y349580D01*
X84165Y352095D01*
X85127Y354419D01*
X86906Y356198D01*
X89230Y357160D01*
X91745Y357160D01*
X94069Y356198D01*
X95848Y354419D01*
X96810Y352095D01*
X96810Y349580D01*
X95848Y347256D01*
X94998Y346407D01*
X94920Y346308D01*
X94835Y346214D01*
X94812Y346171D01*
X94782Y346134D01*
X94728Y346019D01*
X94667Y345909D01*
X94653Y345862D01*
X94633Y345819D01*
X94606Y345695D01*
X94572Y345573D01*
X94567Y345513D01*
X94559Y345478D01*
X94560Y345430D01*
X94552Y345330D01*
X94552Y284908D01*
X94567Y284782D01*
X94573Y284656D01*
X94587Y284610D01*
X94592Y284562D01*
X94635Y284443D01*
X94670Y284321D01*
X94693Y284279D01*
X94710Y284234D01*
X94778Y284127D01*
X94840Y284017D01*
X94879Y283971D01*
X94899Y283941D01*
X94933Y283907D01*
X94998Y283831D01*
X95848Y282982D01*
X96810Y280658D01*
X96810Y278142D01*
X95848Y275818D01*
X94918Y274889D01*
X94856Y274810D01*
X94786Y274738D01*
X94748Y274674D01*
X94702Y274616D01*
X94659Y274525D01*
X94607Y274439D01*
X94585Y274368D01*
X94553Y274301D01*
X94532Y274203D01*
X94501Y274107D01*
X94495Y274033D01*
X94479Y273960D01*
X94481Y273860D01*
X94473Y273760D01*
X94484Y273686D01*
X94485Y273612D01*
X94510Y273515D01*
X94525Y273415D01*
X94552Y273346D01*
X94570Y273274D01*
X94616Y273185D01*
X94653Y273091D01*
X94696Y273030D01*
X94730Y272964D01*
X94795Y272888D01*
X94852Y272805D01*
X94908Y272755D01*
X94956Y272699D01*
X95037Y272639D01*
X95111Y272572D01*
X95176Y272536D01*
X95236Y272491D01*
X95328Y272452D01*
X95416Y272403D01*
X95488Y272383D01*
X95556Y272353D01*
X95655Y272336D01*
X95752Y272308D01*
X95852Y272300D01*
X95899Y272292D01*
X95935Y272294D01*
X95995Y272289D01*
X203888Y272289D01*
X204037Y272306D01*
X204187Y272318D01*
X204210Y272326D01*
X204234Y272329D01*
X204375Y272379D01*
X204518Y272425D01*
X204539Y272438D01*
X204562Y272446D01*
X204689Y272528D01*
X204817Y272605D01*
X204834Y272622D01*
X204855Y272635D01*
X204959Y272743D01*
X205067Y272848D01*
X205080Y272868D01*
X205097Y272886D01*
X205174Y273015D01*
X205255Y273141D01*
X205263Y273164D01*
X205276Y273185D01*
X205321Y273328D01*
X205372Y273470D01*
X205375Y273494D01*
X205382Y273517D01*
X205394Y273666D01*
X205411Y273816D01*
X205408Y273840D01*
X205410Y273864D01*
X205388Y274013D01*
X205370Y274162D01*
X205361Y274190D01*
X205358Y274209D01*
X205341Y274253D01*
X205295Y274395D01*
X205005Y275094D01*
X205005Y277610D01*
X205968Y279934D01*
X207746Y281712D01*
X210070Y282675D01*
X212586Y282675D01*
X214910Y281712D01*
X215251Y281371D01*
X215350Y281292D01*
X215444Y281208D01*
X215486Y281184D01*
X215524Y281154D01*
X215638Y281100D01*
X215749Y281039D01*
X215795Y281026D01*
X215839Y281005D01*
X215962Y280979D01*
X216084Y280944D01*
X216145Y280939D01*
X216180Y280932D01*
X216228Y280933D01*
X216328Y280925D01*
X238840Y280925D01*
X238966Y280939D01*
X239092Y280946D01*
X239138Y280959D01*
X239186Y280965D01*
X239305Y281007D01*
X239427Y281042D01*
X239469Y281066D01*
X239514Y281082D01*
X239621Y281151D01*
X239731Y281212D01*
X239777Y281252D01*
X239807Y281271D01*
X239841Y281306D01*
X239917Y281371D01*
X240258Y281712D01*
X242582Y282675D01*
X245098Y282675D01*
X247422Y281712D01*
X249200Y279934D01*
X250163Y277610D01*
X250163Y275094D01*
X249200Y272770D01*
X247422Y270992D01*
X246229Y270498D01*
X246201Y270482D01*
X246192Y270479D01*
X246174Y270467D01*
X246098Y270425D01*
X245964Y270356D01*
X245946Y270340D01*
X245924Y270329D01*
X245813Y270228D01*
X245699Y270130D01*
X245684Y270111D01*
X245666Y270094D01*
X245581Y269971D01*
X245491Y269850D01*
X245482Y269828D01*
X245468Y269808D01*
X245413Y269668D01*
X245353Y269530D01*
X245349Y269506D01*
X245340Y269484D01*
X245318Y269335D01*
X245292Y269187D01*
X245293Y269163D01*
X245289Y269139D01*
X245302Y268989D01*
X245310Y268839D01*
X245316Y268816D01*
X245318Y268791D01*
X245365Y268648D01*
X245406Y268504D01*
X245418Y268483D01*
X245425Y268460D01*
X245503Y268331D01*
X245576Y268200D01*
X245595Y268178D01*
X245605Y268161D01*
X245638Y268127D01*
X245735Y268014D01*
X260466Y253283D01*
X260565Y253204D01*
X260659Y253119D01*
X260701Y253096D01*
X260739Y253066D01*
X260853Y253012D01*
X260964Y252951D01*
X261010Y252938D01*
X261054Y252917D01*
X261177Y252891D01*
X261299Y252856D01*
X261360Y252851D01*
X261395Y252844D01*
X261443Y252845D01*
X261543Y252837D01*
X312834Y252837D01*
X332559Y233111D01*
X332658Y233032D01*
X332752Y232948D01*
X332795Y232924D01*
X332832Y232894D01*
X332947Y232840D01*
X333057Y232779D01*
X333104Y232766D01*
X333147Y232745D01*
X333271Y232719D01*
X333393Y232684D01*
X333453Y232679D01*
X333488Y232672D01*
X333536Y232673D01*
X333636Y232665D01*
X423135Y232665D01*
X423261Y232679D01*
X423387Y232686D01*
X423434Y232699D01*
X423482Y232705D01*
X423601Y232747D01*
X423722Y232782D01*
X423764Y232806D01*
X423810Y232822D01*
X423916Y232891D01*
X424026Y232952D01*
X424072Y232992D01*
X424102Y233011D01*
X424136Y233046D01*
X424212Y233111D01*
X425490Y234388D01*
X425569Y234487D01*
X425653Y234581D01*
X425677Y234624D01*
X425707Y234661D01*
X425761Y234776D01*
X425822Y234886D01*
X425835Y234933D01*
X425855Y234976D01*
X425882Y235100D01*
X425916Y235222D01*
X425921Y235282D01*
X425929Y235317D01*
X425928Y235365D01*
X425936Y235465D01*
X425936Y248217D01*
X425925Y248317D01*
X425923Y248417D01*
X425905Y248489D01*
X425896Y248563D01*
X425862Y248658D01*
X425838Y248755D01*
X425804Y248821D01*
X425779Y248891D01*
X425724Y248976D01*
X425678Y249065D01*
X425630Y249122D01*
X425590Y249184D01*
X425517Y249254D01*
X425452Y249330D01*
X425393Y249375D01*
X425339Y249426D01*
X425253Y249478D01*
X425172Y249538D01*
X425104Y249567D01*
X425040Y249605D01*
X424944Y249636D01*
X424852Y249676D01*
X424779Y249689D01*
X424708Y249711D01*
X424608Y249719D01*
X424509Y249737D01*
X424435Y249733D01*
X424361Y249739D01*
X424261Y249724D01*
X424161Y249719D01*
X424090Y249699D01*
X424016Y249688D01*
X423923Y249650D01*
X423826Y249623D01*
X423761Y249586D01*
X423692Y249559D01*
X423610Y249502D01*
X423522Y249453D01*
X423445Y249387D01*
X423406Y249360D01*
X423382Y249334D01*
X423336Y249294D01*
X422682Y248640D01*
X420358Y247677D01*
X419157Y247677D01*
X419031Y247663D01*
X418905Y247656D01*
X418858Y247643D01*
X418810Y247637D01*
X418691Y247595D01*
X418570Y247560D01*
X418528Y247536D01*
X418482Y247520D01*
X418376Y247451D01*
X418266Y247390D01*
X418220Y247350D01*
X418190Y247331D01*
X418156Y247296D01*
X418080Y247231D01*
X408084Y237235D01*
X341216Y237235D01*
X337570Y240881D01*
X337471Y240960D01*
X337378Y241044D01*
X337335Y241068D01*
X337297Y241098D01*
X337183Y241152D01*
X337073Y241213D01*
X337026Y241226D01*
X336982Y241247D01*
X336859Y241273D01*
X336737Y241308D01*
X336676Y241313D01*
X336642Y241320D01*
X336594Y241319D01*
X336493Y241327D01*
X335292Y241327D01*
X332968Y242290D01*
X331190Y244068D01*
X330227Y246392D01*
X330227Y248908D01*
X331190Y251232D01*
X332968Y253010D01*
X335292Y253973D01*
X337808Y253973D01*
X340132Y253010D01*
X341910Y251232D01*
X342873Y248908D01*
X342873Y247707D01*
X342887Y247581D01*
X342894Y247455D01*
X342907Y247408D01*
X342913Y247360D01*
X342955Y247241D01*
X342990Y247120D01*
X343014Y247078D01*
X343030Y247032D01*
X343099Y246926D01*
X343160Y246816D01*
X343200Y246770D01*
X343219Y246740D01*
X343254Y246706D01*
X343319Y246630D01*
X344138Y245811D01*
X344237Y245732D01*
X344330Y245648D01*
X344373Y245624D01*
X344411Y245594D01*
X344525Y245540D01*
X344635Y245479D01*
X344682Y245466D01*
X344726Y245445D01*
X344849Y245419D01*
X344971Y245384D01*
X345032Y245379D01*
X345066Y245372D01*
X345114Y245373D01*
X345215Y245365D01*
X404085Y245365D01*
X404211Y245379D01*
X404337Y245386D01*
X404384Y245399D01*
X404432Y245405D01*
X404551Y245447D01*
X404672Y245482D01*
X404714Y245506D01*
X404760Y245522D01*
X404866Y245591D01*
X404976Y245652D01*
X405022Y245692D01*
X405052Y245711D01*
X405086Y245746D01*
X405162Y245811D01*
X412331Y252980D01*
X412410Y253079D01*
X412494Y253172D01*
X412518Y253215D01*
X412548Y253253D01*
X412602Y253367D01*
X412663Y253477D01*
X412676Y253524D01*
X412697Y253568D01*
X412723Y253691D01*
X412758Y253813D01*
X412763Y253874D01*
X412770Y253908D01*
X412769Y253956D01*
X412777Y254057D01*
X412777Y255258D01*
X413740Y257582D01*
X415518Y259360D01*
X417842Y260323D01*
X420358Y260323D01*
X422682Y259360D01*
X424460Y257582D01*
X425422Y255258D01*
X425471Y255171D01*
X425511Y255079D01*
X425556Y255019D01*
X425592Y254954D01*
X425659Y254879D01*
X425719Y254799D01*
X425776Y254751D01*
X425826Y254696D01*
X425908Y254639D01*
X425985Y254574D01*
X426051Y254540D01*
X426113Y254497D01*
X426206Y254461D01*
X426295Y254415D01*
X426367Y254397D01*
X426437Y254370D01*
X426536Y254355D01*
X426634Y254331D01*
X426708Y254330D01*
X426782Y254319D01*
X426882Y254327D01*
X426982Y254326D01*
X427055Y254342D01*
X427129Y254348D01*
X427224Y254379D01*
X427323Y254400D01*
X427390Y254432D01*
X427460Y254455D01*
X427546Y254507D01*
X427637Y254550D01*
X427695Y254596D01*
X427759Y254634D01*
X427831Y254705D01*
X427910Y254767D01*
X427956Y254825D01*
X428009Y254877D01*
X428063Y254962D01*
X428126Y255041D01*
X428171Y255130D01*
X428197Y255171D01*
X428209Y255204D01*
X428237Y255258D01*
X428726Y256439D01*
X430504Y258217D01*
X432828Y259180D01*
X435344Y259180D01*
X437668Y258217D01*
X439446Y256439D01*
X440179Y254669D01*
X440205Y254623D01*
X440222Y254574D01*
X440289Y254471D01*
X440348Y254364D01*
X440384Y254325D01*
X440412Y254281D01*
X440500Y254197D01*
X440583Y254106D01*
X440626Y254076D01*
X440664Y254040D01*
X440769Y253977D01*
X440869Y253908D01*
X440918Y253889D01*
X440963Y253862D01*
X441080Y253825D01*
X441194Y253780D01*
X441245Y253773D01*
X441295Y253757D01*
X441417Y253747D01*
X441538Y253729D01*
X441591Y253734D01*
X441643Y253730D01*
X441764Y253748D01*
X441886Y253758D01*
X441936Y253774D01*
X441987Y253782D01*
X442101Y253828D01*
X442217Y253865D01*
X442262Y253892D01*
X442311Y253912D01*
X442411Y253982D01*
X442516Y254045D01*
X442554Y254082D01*
X442597Y254112D01*
X442678Y254203D01*
X442766Y254288D01*
X442794Y254332D01*
X442829Y254371D01*
X442888Y254478D01*
X442954Y254581D01*
X442972Y254631D01*
X442997Y254677D01*
X443030Y254794D01*
X443071Y254910D01*
X443077Y254962D01*
X443091Y255012D01*
X443110Y255256D01*
X442481Y482162D01*
X442467Y482286D01*
X442460Y482410D01*
X442446Y482459D01*
X442440Y482509D01*
X442398Y482626D01*
X442364Y482745D01*
X442339Y482789D01*
X442322Y482836D01*
X442254Y482940D01*
X442193Y483049D01*
X442152Y483098D01*
X442132Y483129D01*
X442098Y483162D01*
X442035Y483235D01*
X441680Y483590D01*
X440717Y485914D01*
X440717Y488430D01*
X441680Y490754D01*
X443458Y492532D01*
X445782Y493495D01*
X448298Y493495D01*
X450622Y492532D01*
X452400Y490754D01*
X453363Y488430D01*
X453363Y485914D01*
X452400Y483590D01*
X452073Y483263D01*
X451993Y483162D01*
X451907Y483067D01*
X451885Y483026D01*
X451856Y482990D01*
X451801Y482874D01*
X451739Y482761D01*
X451727Y482717D01*
X451707Y482675D01*
X451680Y482549D01*
X451646Y482426D01*
X451641Y482368D01*
X451634Y482334D01*
X451635Y482286D01*
X451627Y482182D01*
X452354Y219639D01*
X452354Y219637D01*
X452354Y219635D01*
X452357Y219608D01*
X452357Y218433D01*
X452357Y218431D01*
X452357Y218429D01*
X452360Y217519D01*
X452014Y216683D01*
X452013Y216682D01*
X452012Y216679D01*
X451666Y215837D01*
X451023Y215195D01*
X451022Y215193D01*
X451020Y215192D01*
X450197Y214364D01*
X450167Y214338D01*
X441502Y205673D01*
X439822Y204977D01*
X358125Y204977D01*
X357999Y204963D01*
X357873Y204956D01*
X357827Y204943D01*
X357779Y204937D01*
X357660Y204895D01*
X357538Y204860D01*
X357496Y204836D01*
X357451Y204820D01*
X357344Y204751D01*
X357234Y204690D01*
X357188Y204650D01*
X357158Y204631D01*
X357124Y204596D01*
X357048Y204531D01*
X354269Y201752D01*
X354190Y201653D01*
X354106Y201559D01*
X354082Y201517D01*
X354052Y201479D01*
X353998Y201365D01*
X353937Y201254D01*
X353924Y201208D01*
X353903Y201164D01*
X353877Y201041D01*
X353842Y200919D01*
X353837Y200858D01*
X353830Y200823D01*
X353831Y200775D01*
X353823Y200675D01*
X353823Y142225D01*
X353837Y142099D01*
X353844Y141973D01*
X353857Y141927D01*
X353863Y141879D01*
X353905Y141760D01*
X353940Y141638D01*
X353964Y141596D01*
X353980Y141551D01*
X354049Y141444D01*
X354110Y141334D01*
X354150Y141288D01*
X354169Y141258D01*
X354204Y141224D01*
X354269Y141148D01*
X369748Y125669D01*
X369847Y125590D01*
X369941Y125506D01*
X369983Y125482D01*
X370021Y125452D01*
X370135Y125398D01*
X370246Y125337D01*
X370292Y125324D01*
X370336Y125303D01*
X370459Y125277D01*
X370581Y125242D01*
X370642Y125237D01*
X370677Y125230D01*
X370725Y125231D01*
X370825Y125223D01*
X388260Y125223D01*
X389940Y124527D01*
X397577Y116890D01*
X398273Y115210D01*
X398273Y93900D01*
X398274Y93890D01*
X398274Y93887D01*
X398276Y93871D01*
X398287Y93774D01*
X398294Y93648D01*
X398307Y93602D01*
X398313Y93554D01*
X398355Y93435D01*
X398390Y93313D01*
X398414Y93271D01*
X398430Y93226D01*
X398499Y93119D01*
X398560Y93009D01*
X398600Y92963D01*
X398619Y92933D01*
X398654Y92899D01*
X398719Y92823D01*
X399060Y92482D01*
X400023Y90158D01*
X400023Y87642D01*
X399060Y85318D01*
X397282Y83540D01*
X394958Y82577D01*
X392442Y82577D01*
G37*
%LPD*%
%LPC*%
G36*
X22109Y472439D02*
X22109Y472439D01*
X18374Y473986D01*
X15516Y476844D01*
X13969Y480579D01*
X13969Y484621D01*
X15516Y488356D01*
X18374Y491214D01*
X22109Y492761D01*
X41391Y492761D01*
X45126Y491214D01*
X47984Y488356D01*
X48295Y487605D01*
X48332Y487538D01*
X48360Y487467D01*
X48416Y487386D01*
X48464Y487300D01*
X48515Y487244D01*
X48559Y487181D01*
X48632Y487115D01*
X48698Y487042D01*
X48761Y486999D01*
X48818Y486948D01*
X48904Y486900D01*
X48985Y486844D01*
X49056Y486816D01*
X49123Y486779D01*
X49218Y486752D01*
X49309Y486716D01*
X49385Y486705D01*
X49458Y486684D01*
X49607Y486672D01*
X49654Y486665D01*
X49673Y486667D01*
X49702Y486665D01*
X67535Y486665D01*
X67661Y486679D01*
X67787Y486686D01*
X67834Y486699D01*
X67882Y486705D01*
X68001Y486747D01*
X68122Y486782D01*
X68164Y486806D01*
X68210Y486822D01*
X68316Y486891D01*
X68426Y486952D01*
X68472Y486992D01*
X68502Y487011D01*
X68536Y487046D01*
X68612Y487111D01*
X78039Y496538D01*
X78104Y496619D01*
X78157Y496675D01*
X78168Y496693D01*
X78202Y496730D01*
X78226Y496773D01*
X78256Y496811D01*
X78310Y496925D01*
X78371Y497035D01*
X78384Y497082D01*
X78405Y497126D01*
X78431Y497249D01*
X78466Y497371D01*
X78471Y497432D01*
X78478Y497466D01*
X78477Y497514D01*
X78485Y497615D01*
X78485Y554134D01*
X109789Y585438D01*
X109868Y585537D01*
X109952Y585630D01*
X109976Y585673D01*
X110006Y585711D01*
X110060Y585825D01*
X110121Y585935D01*
X110134Y585982D01*
X110155Y586026D01*
X110181Y586149D01*
X110216Y586271D01*
X110221Y586332D01*
X110228Y586366D01*
X110227Y586414D01*
X110235Y586515D01*
X110235Y727171D01*
X112294Y729230D01*
X112372Y729329D01*
X112457Y729422D01*
X112480Y729465D01*
X112510Y729503D01*
X112564Y729617D01*
X112625Y729727D01*
X112639Y729774D01*
X112659Y729818D01*
X112686Y729941D01*
X112720Y730063D01*
X112725Y730124D01*
X112733Y730158D01*
X112732Y730206D01*
X112740Y730307D01*
X112740Y731508D01*
X113702Y733832D01*
X115481Y735610D01*
X117805Y736573D01*
X120320Y736573D01*
X122644Y735610D01*
X124423Y733832D01*
X125385Y731508D01*
X125385Y728992D01*
X124423Y726668D01*
X122644Y724890D01*
X120320Y723927D01*
X119888Y723927D01*
X119862Y723924D01*
X119836Y723926D01*
X119689Y723904D01*
X119542Y723887D01*
X119517Y723879D01*
X119491Y723875D01*
X119353Y723820D01*
X119214Y723770D01*
X119192Y723756D01*
X119167Y723746D01*
X119046Y723661D01*
X118921Y723581D01*
X118903Y723562D01*
X118881Y723547D01*
X118782Y723437D01*
X118679Y723330D01*
X118665Y723308D01*
X118648Y723288D01*
X118576Y723158D01*
X118500Y723031D01*
X118492Y723006D01*
X118479Y722983D01*
X118439Y722840D01*
X118394Y722699D01*
X118392Y722673D01*
X118384Y722648D01*
X118365Y722404D01*
X118365Y582516D01*
X87061Y551212D01*
X86982Y551113D01*
X86898Y551020D01*
X86874Y550977D01*
X86844Y550939D01*
X86790Y550825D01*
X86729Y550715D01*
X86716Y550668D01*
X86695Y550624D01*
X86669Y550501D01*
X86634Y550379D01*
X86629Y550318D01*
X86622Y550284D01*
X86623Y550236D01*
X86615Y550135D01*
X86615Y493616D01*
X71534Y478535D01*
X49702Y478535D01*
X49626Y478527D01*
X49550Y478528D01*
X49454Y478507D01*
X49356Y478495D01*
X49284Y478470D01*
X49209Y478453D01*
X49120Y478411D01*
X49028Y478378D01*
X48964Y478336D01*
X48895Y478304D01*
X48818Y478242D01*
X48735Y478189D01*
X48682Y478134D01*
X48622Y478086D01*
X48561Y478009D01*
X48493Y477938D01*
X48453Y477873D01*
X48406Y477813D01*
X48338Y477680D01*
X48314Y477639D01*
X48308Y477621D01*
X48295Y477595D01*
X47984Y476844D01*
X45126Y473986D01*
X41391Y472439D01*
X22109Y472439D01*
G37*
%LPD*%
G36*
X323976Y615991D02*
X323976Y615991D01*
X324050Y615993D01*
X324147Y616017D01*
X324247Y616032D01*
X324316Y616059D01*
X324388Y616078D01*
X324478Y616124D01*
X324571Y616161D01*
X324632Y616203D01*
X324698Y616237D01*
X324775Y616302D01*
X324857Y616360D01*
X324907Y616415D01*
X324963Y616463D01*
X325023Y616544D01*
X325090Y616618D01*
X325126Y616683D01*
X325171Y616743D01*
X325210Y616836D01*
X325259Y616923D01*
X325279Y616995D01*
X325309Y617063D01*
X325326Y617162D01*
X325354Y617259D01*
X325362Y617359D01*
X325370Y617406D01*
X325368Y617442D01*
X325373Y617503D01*
X325373Y737362D01*
X325370Y737388D01*
X325372Y737414D01*
X325350Y737561D01*
X325333Y737708D01*
X325325Y737733D01*
X325321Y737759D01*
X325266Y737897D01*
X325216Y738036D01*
X325202Y738058D01*
X325192Y738083D01*
X325107Y738204D01*
X325027Y738329D01*
X325008Y738347D01*
X324993Y738369D01*
X324883Y738468D01*
X324776Y738571D01*
X324754Y738585D01*
X324734Y738602D01*
X324604Y738674D01*
X324477Y738750D01*
X324452Y738758D01*
X324429Y738771D01*
X324286Y738811D01*
X324145Y738856D01*
X324119Y738858D01*
X324094Y738866D01*
X323850Y738885D01*
X307115Y738885D01*
X306989Y738871D01*
X306863Y738864D01*
X306816Y738851D01*
X306768Y738845D01*
X306649Y738803D01*
X306528Y738768D01*
X306486Y738744D01*
X306440Y738728D01*
X306334Y738659D01*
X306224Y738598D01*
X306178Y738558D01*
X306148Y738539D01*
X306114Y738504D01*
X306038Y738439D01*
X302961Y735362D01*
X302882Y735263D01*
X302798Y735170D01*
X302774Y735127D01*
X302744Y735089D01*
X302690Y734975D01*
X302629Y734865D01*
X302616Y734818D01*
X302595Y734774D01*
X302569Y734651D01*
X302534Y734529D01*
X302529Y734468D01*
X302522Y734434D01*
X302523Y734386D01*
X302515Y734285D01*
X302515Y646016D01*
X298869Y642370D01*
X298790Y642271D01*
X298706Y642178D01*
X298682Y642135D01*
X298652Y642097D01*
X298598Y641983D01*
X298537Y641873D01*
X298524Y641826D01*
X298503Y641782D01*
X298477Y641659D01*
X298442Y641537D01*
X298437Y641476D01*
X298430Y641442D01*
X298431Y641394D01*
X298423Y641293D01*
X298423Y640092D01*
X297460Y637768D01*
X295769Y636077D01*
X295753Y636057D01*
X295732Y636040D01*
X295644Y635920D01*
X295552Y635804D01*
X295541Y635780D01*
X295525Y635759D01*
X295467Y635623D01*
X295403Y635489D01*
X295398Y635463D01*
X295387Y635439D01*
X295361Y635293D01*
X295330Y635148D01*
X295330Y635122D01*
X295326Y635096D01*
X295333Y634948D01*
X295336Y634800D01*
X295342Y634774D01*
X295344Y634748D01*
X295385Y634606D01*
X295421Y634462D01*
X295433Y634438D01*
X295440Y634413D01*
X295512Y634284D01*
X295580Y634152D01*
X295598Y634132D01*
X295610Y634109D01*
X295769Y633923D01*
X296531Y633161D01*
X296630Y633082D01*
X296724Y632998D01*
X296766Y632974D01*
X296804Y632944D01*
X296918Y632890D01*
X297029Y632829D01*
X297075Y632816D01*
X297119Y632795D01*
X297242Y632769D01*
X297364Y632734D01*
X297425Y632729D01*
X297460Y632722D01*
X297508Y632723D01*
X297608Y632715D01*
X306484Y632715D01*
X322773Y616426D01*
X322851Y616363D01*
X322924Y616293D01*
X322988Y616255D01*
X323046Y616209D01*
X323137Y616166D01*
X323223Y616114D01*
X323294Y616092D01*
X323361Y616060D01*
X323459Y616039D01*
X323555Y616008D01*
X323629Y616002D01*
X323702Y615987D01*
X323802Y615988D01*
X323902Y615980D01*
X323976Y615991D01*
G37*
%LPC*%
G36*
X398792Y266727D02*
X398792Y266727D01*
X396468Y267690D01*
X394690Y269468D01*
X393727Y271792D01*
X393727Y274308D01*
X394690Y276632D01*
X395539Y277481D01*
X395618Y277580D01*
X395702Y277674D01*
X395726Y277716D01*
X395756Y277754D01*
X395810Y277868D01*
X395871Y277979D01*
X395884Y278025D01*
X395905Y278069D01*
X395931Y278192D01*
X395966Y278314D01*
X395971Y278375D01*
X395978Y278410D01*
X395977Y278458D01*
X395985Y278558D01*
X395985Y296135D01*
X395971Y296261D01*
X395964Y296387D01*
X395951Y296434D01*
X395945Y296482D01*
X395903Y296601D01*
X395868Y296722D01*
X395844Y296764D01*
X395828Y296810D01*
X395759Y296916D01*
X395698Y297026D01*
X395658Y297072D01*
X395639Y297102D01*
X395604Y297136D01*
X395539Y297212D01*
X386112Y306639D01*
X386013Y306718D01*
X385920Y306802D01*
X385877Y306826D01*
X385839Y306856D01*
X385725Y306910D01*
X385615Y306971D01*
X385568Y306984D01*
X385524Y307005D01*
X385401Y307031D01*
X385279Y307066D01*
X385218Y307071D01*
X385184Y307078D01*
X385136Y307077D01*
X385035Y307085D01*
X284066Y307085D01*
X278162Y312989D01*
X278063Y313068D01*
X277970Y313152D01*
X277927Y313176D01*
X277889Y313206D01*
X277775Y313260D01*
X277665Y313321D01*
X277618Y313334D01*
X277574Y313355D01*
X277451Y313381D01*
X277329Y313416D01*
X277268Y313421D01*
X277234Y313428D01*
X277186Y313427D01*
X277085Y313435D01*
X164258Y313435D01*
X164132Y313421D01*
X164006Y313414D01*
X163960Y313401D01*
X163912Y313395D01*
X163793Y313353D01*
X163671Y313318D01*
X163629Y313294D01*
X163584Y313278D01*
X163477Y313209D01*
X163367Y313148D01*
X163321Y313108D01*
X163291Y313089D01*
X163257Y313054D01*
X163181Y312989D01*
X162332Y312140D01*
X160008Y311177D01*
X157492Y311177D01*
X155168Y312140D01*
X153390Y313918D01*
X152427Y316242D01*
X152427Y318758D01*
X153390Y321082D01*
X155168Y322860D01*
X157492Y323823D01*
X160008Y323823D01*
X162332Y322860D01*
X163181Y322011D01*
X163280Y321932D01*
X163374Y321848D01*
X163416Y321824D01*
X163454Y321794D01*
X163568Y321740D01*
X163679Y321679D01*
X163725Y321666D01*
X163769Y321645D01*
X163892Y321619D01*
X164014Y321584D01*
X164075Y321579D01*
X164110Y321572D01*
X164158Y321573D01*
X164258Y321565D01*
X281084Y321565D01*
X286988Y315661D01*
X287087Y315582D01*
X287180Y315498D01*
X287223Y315474D01*
X287261Y315444D01*
X287375Y315390D01*
X287485Y315329D01*
X287532Y315316D01*
X287576Y315295D01*
X287699Y315269D01*
X287821Y315234D01*
X287882Y315229D01*
X287916Y315222D01*
X287964Y315223D01*
X288065Y315215D01*
X389034Y315215D01*
X404115Y300134D01*
X404115Y278558D01*
X404129Y278432D01*
X404136Y278306D01*
X404149Y278260D01*
X404155Y278212D01*
X404197Y278093D01*
X404232Y277971D01*
X404256Y277929D01*
X404272Y277884D01*
X404341Y277777D01*
X404402Y277667D01*
X404442Y277621D01*
X404461Y277591D01*
X404496Y277557D01*
X404561Y277481D01*
X405410Y276632D01*
X406373Y274308D01*
X406373Y271792D01*
X405410Y269468D01*
X403632Y267690D01*
X401308Y266727D01*
X398792Y266727D01*
G37*
%LPD*%
%LPC*%
G36*
X100342Y88927D02*
X100342Y88927D01*
X98018Y89890D01*
X96240Y91668D01*
X95277Y93992D01*
X95277Y96508D01*
X96240Y98832D01*
X96581Y99173D01*
X96660Y99272D01*
X96744Y99366D01*
X96768Y99408D01*
X96798Y99446D01*
X96852Y99560D01*
X96913Y99671D01*
X96926Y99717D01*
X96947Y99761D01*
X96973Y99884D01*
X97008Y100006D01*
X97013Y100067D01*
X97020Y100102D01*
X97019Y100150D01*
X97027Y100250D01*
X97027Y127910D01*
X97723Y129590D01*
X99224Y131091D01*
X111710Y143577D01*
X113390Y144273D01*
X210460Y144273D01*
X212140Y143577D01*
X213641Y142076D01*
X217348Y138369D01*
X217447Y138290D01*
X217541Y138206D01*
X217583Y138182D01*
X217621Y138152D01*
X217735Y138098D01*
X217846Y138037D01*
X217892Y138024D01*
X217936Y138003D01*
X218059Y137977D01*
X218181Y137942D01*
X218242Y137937D01*
X218277Y137930D01*
X218325Y137931D01*
X218425Y137923D01*
X280310Y137923D01*
X281990Y137227D01*
X283491Y135726D01*
X292974Y126243D01*
X293034Y126196D01*
X293087Y126141D01*
X293170Y126088D01*
X293247Y126026D01*
X293316Y125994D01*
X293380Y125953D01*
X293473Y125920D01*
X293562Y125878D01*
X293636Y125862D01*
X293709Y125836D01*
X293806Y125825D01*
X293902Y125804D01*
X293979Y125806D01*
X294055Y125797D01*
X294153Y125808D01*
X294251Y125810D01*
X294325Y125829D01*
X294401Y125838D01*
X294543Y125884D01*
X294589Y125895D01*
X294606Y125904D01*
X294634Y125913D01*
X297192Y126973D01*
X299708Y126973D01*
X302032Y126010D01*
X303810Y124232D01*
X304773Y121908D01*
X304773Y119392D01*
X303810Y117068D01*
X302032Y115290D01*
X299708Y114327D01*
X297192Y114327D01*
X294868Y115290D01*
X294527Y115631D01*
X294428Y115710D01*
X294334Y115794D01*
X294292Y115818D01*
X294254Y115848D01*
X294140Y115902D01*
X294029Y115963D01*
X293983Y115976D01*
X293939Y115997D01*
X293816Y116023D01*
X293694Y116058D01*
X293633Y116063D01*
X293598Y116070D01*
X293550Y116069D01*
X293450Y116077D01*
X291190Y116077D01*
X289510Y116773D01*
X277952Y128331D01*
X277853Y128410D01*
X277759Y128494D01*
X277717Y128518D01*
X277679Y128548D01*
X277565Y128602D01*
X277454Y128663D01*
X277408Y128676D01*
X277364Y128697D01*
X277241Y128723D01*
X277119Y128758D01*
X277058Y128763D01*
X277023Y128770D01*
X276975Y128769D01*
X276875Y128777D01*
X214990Y128777D01*
X213310Y129473D01*
X211809Y130974D01*
X208102Y134681D01*
X208003Y134760D01*
X207909Y134844D01*
X207867Y134868D01*
X207829Y134898D01*
X207715Y134952D01*
X207604Y135013D01*
X207558Y135026D01*
X207514Y135047D01*
X207391Y135073D01*
X207269Y135108D01*
X207208Y135113D01*
X207173Y135120D01*
X207125Y135119D01*
X207025Y135127D01*
X116825Y135127D01*
X116699Y135113D01*
X116573Y135106D01*
X116527Y135093D01*
X116479Y135087D01*
X116360Y135045D01*
X116238Y135010D01*
X116196Y134986D01*
X116151Y134970D01*
X116044Y134901D01*
X115934Y134840D01*
X115888Y134800D01*
X115858Y134781D01*
X115824Y134746D01*
X115748Y134681D01*
X106619Y125552D01*
X106540Y125453D01*
X106456Y125359D01*
X106432Y125317D01*
X106402Y125279D01*
X106348Y125165D01*
X106287Y125054D01*
X106274Y125008D01*
X106253Y124964D01*
X106227Y124841D01*
X106192Y124719D01*
X106187Y124658D01*
X106180Y124623D01*
X106181Y124575D01*
X106173Y124475D01*
X106173Y100250D01*
X106187Y100124D01*
X106194Y99998D01*
X106207Y99952D01*
X106213Y99904D01*
X106255Y99785D01*
X106290Y99663D01*
X106314Y99621D01*
X106330Y99576D01*
X106399Y99469D01*
X106460Y99359D01*
X106500Y99313D01*
X106519Y99283D01*
X106554Y99249D01*
X106619Y99173D01*
X106960Y98832D01*
X107923Y96508D01*
X107923Y93992D01*
X106960Y91668D01*
X105182Y89890D01*
X102858Y88927D01*
X100342Y88927D01*
G37*
%LPD*%
%LPC*%
G36*
X238518Y340835D02*
X238518Y340835D01*
X236194Y341797D01*
X234416Y343576D01*
X233453Y345900D01*
X233453Y348415D01*
X234416Y350739D01*
X235265Y351588D01*
X235344Y351687D01*
X235428Y351781D01*
X235452Y351824D01*
X235482Y351861D01*
X235536Y351976D01*
X235597Y352086D01*
X235610Y352133D01*
X235631Y352176D01*
X235657Y352300D01*
X235692Y352422D01*
X235697Y352482D01*
X235704Y352517D01*
X235703Y352565D01*
X235711Y352665D01*
X235711Y445342D01*
X235700Y445442D01*
X235698Y445542D01*
X235680Y445614D01*
X235671Y445688D01*
X235637Y445783D01*
X235613Y445880D01*
X235579Y445946D01*
X235554Y446016D01*
X235499Y446101D01*
X235453Y446190D01*
X235405Y446247D01*
X235365Y446309D01*
X235293Y446379D01*
X235228Y446456D01*
X235168Y446500D01*
X235114Y446551D01*
X235028Y446603D01*
X234947Y446663D01*
X234879Y446692D01*
X234815Y446730D01*
X234719Y446761D01*
X234627Y446801D01*
X234554Y446814D01*
X234483Y446837D01*
X234383Y446845D01*
X234284Y446862D01*
X234210Y446859D01*
X234136Y446864D01*
X234036Y446850D01*
X233936Y446844D01*
X233865Y446824D01*
X233791Y446813D01*
X233698Y446776D01*
X233601Y446748D01*
X233536Y446712D01*
X233467Y446684D01*
X233385Y446627D01*
X233297Y446578D01*
X233221Y446513D01*
X233181Y446485D01*
X233157Y446459D01*
X233111Y446419D01*
X232182Y445490D01*
X229858Y444527D01*
X227342Y444527D01*
X225018Y445490D01*
X223240Y447268D01*
X222277Y449592D01*
X222277Y452108D01*
X223240Y454432D01*
X224089Y455281D01*
X224168Y455380D01*
X224252Y455474D01*
X224276Y455516D01*
X224306Y455554D01*
X224360Y455668D01*
X224421Y455779D01*
X224434Y455825D01*
X224455Y455869D01*
X224481Y455992D01*
X224516Y456114D01*
X224521Y456175D01*
X224528Y456210D01*
X224527Y456258D01*
X224535Y456358D01*
X224535Y470742D01*
X224521Y470868D01*
X224514Y470994D01*
X224501Y471040D01*
X224495Y471088D01*
X224453Y471207D01*
X224418Y471329D01*
X224394Y471371D01*
X224378Y471416D01*
X224309Y471523D01*
X224248Y471633D01*
X224208Y471679D01*
X224189Y471709D01*
X224154Y471743D01*
X224089Y471819D01*
X223240Y472668D01*
X222277Y474992D01*
X222277Y477508D01*
X223240Y479832D01*
X225018Y481610D01*
X226570Y482253D01*
X226702Y482326D01*
X226835Y482395D01*
X226854Y482410D01*
X226875Y482422D01*
X226986Y482523D01*
X227101Y482621D01*
X227115Y482640D01*
X227133Y482656D01*
X227219Y482780D01*
X227308Y482901D01*
X227317Y482923D01*
X227331Y482943D01*
X227386Y483083D01*
X227446Y483221D01*
X227450Y483245D01*
X227459Y483267D01*
X227481Y483416D01*
X227507Y483564D01*
X227506Y483588D01*
X227510Y483612D01*
X227497Y483762D01*
X227490Y483912D01*
X227483Y483935D01*
X227481Y483959D01*
X227434Y484103D01*
X227393Y484247D01*
X227381Y484268D01*
X227374Y484291D01*
X227296Y484420D01*
X227223Y484551D01*
X227204Y484573D01*
X227194Y484590D01*
X227161Y484623D01*
X227064Y484737D01*
X226156Y485646D01*
X226057Y485724D01*
X225963Y485809D01*
X225921Y485832D01*
X225883Y485862D01*
X225769Y485916D01*
X225658Y485977D01*
X225611Y485991D01*
X225568Y486011D01*
X225444Y486038D01*
X225323Y486072D01*
X225262Y486077D01*
X225227Y486085D01*
X225179Y486084D01*
X225079Y486092D01*
X218521Y486092D01*
X218395Y486077D01*
X218269Y486071D01*
X218223Y486057D01*
X218175Y486052D01*
X218056Y486009D01*
X217934Y485974D01*
X217892Y485951D01*
X217847Y485934D01*
X217740Y485866D01*
X217630Y485804D01*
X217584Y485765D01*
X217554Y485745D01*
X217520Y485711D01*
X217444Y485646D01*
X213636Y481837D01*
X202358Y481837D01*
X202232Y481823D01*
X202106Y481816D01*
X202060Y481803D01*
X202012Y481797D01*
X201893Y481755D01*
X201771Y481720D01*
X201729Y481696D01*
X201684Y481680D01*
X201577Y481611D01*
X201467Y481550D01*
X201421Y481510D01*
X201391Y481491D01*
X201357Y481456D01*
X201281Y481391D01*
X200432Y480542D01*
X198108Y479579D01*
X195592Y479579D01*
X193268Y480542D01*
X191490Y482320D01*
X190527Y484644D01*
X190527Y487160D01*
X191490Y489484D01*
X193268Y491262D01*
X195592Y492225D01*
X198108Y492225D01*
X200432Y491262D01*
X201281Y490413D01*
X201380Y490334D01*
X201474Y490250D01*
X201516Y490226D01*
X201554Y490196D01*
X201668Y490142D01*
X201779Y490081D01*
X201825Y490068D01*
X201869Y490047D01*
X201992Y490021D01*
X202114Y489986D01*
X202175Y489981D01*
X202210Y489974D01*
X202258Y489975D01*
X202358Y489967D01*
X209637Y489967D01*
X209762Y489981D01*
X209889Y489988D01*
X209935Y490001D01*
X209983Y490007D01*
X210102Y490049D01*
X210224Y490084D01*
X210266Y490108D01*
X210311Y490124D01*
X210418Y490193D01*
X210528Y490254D01*
X210574Y490294D01*
X210604Y490313D01*
X210620Y490330D01*
X210622Y490331D01*
X210641Y490351D01*
X210714Y490413D01*
X211695Y491394D01*
X211696Y491394D01*
X214523Y494221D01*
X234078Y494221D01*
X234203Y494236D01*
X234329Y494242D01*
X234376Y494256D01*
X234424Y494261D01*
X234543Y494304D01*
X234664Y494339D01*
X234706Y494362D01*
X234752Y494379D01*
X234858Y494447D01*
X234968Y494509D01*
X235015Y494548D01*
X235045Y494568D01*
X235078Y494602D01*
X235155Y494667D01*
X236004Y495517D01*
X238328Y496479D01*
X240843Y496479D01*
X243167Y495517D01*
X244946Y493738D01*
X245908Y491414D01*
X245908Y488899D01*
X244946Y486575D01*
X243167Y484796D01*
X241975Y484302D01*
X241843Y484229D01*
X241710Y484161D01*
X241691Y484145D01*
X241670Y484133D01*
X241559Y484032D01*
X241444Y483935D01*
X241430Y483915D01*
X241412Y483899D01*
X241326Y483775D01*
X241237Y483654D01*
X241227Y483632D01*
X241214Y483612D01*
X241159Y483473D01*
X241099Y483334D01*
X241095Y483311D01*
X241086Y483288D01*
X241064Y483139D01*
X241037Y482991D01*
X241039Y482967D01*
X241035Y482943D01*
X241047Y482793D01*
X241055Y482643D01*
X241062Y482620D01*
X241064Y482596D01*
X241110Y482453D01*
X241152Y482308D01*
X241164Y482287D01*
X241171Y482264D01*
X241249Y482135D01*
X241322Y482004D01*
X241341Y481982D01*
X241351Y481966D01*
X241384Y481932D01*
X241480Y481818D01*
X243841Y479458D01*
X243841Y352665D01*
X243855Y352540D01*
X243862Y352414D01*
X243875Y352367D01*
X243881Y352319D01*
X243923Y352200D01*
X243958Y352079D01*
X243982Y352037D01*
X243998Y351991D01*
X244067Y351885D01*
X244128Y351775D01*
X244168Y351728D01*
X244187Y351698D01*
X244222Y351665D01*
X244287Y351588D01*
X245136Y350739D01*
X246099Y348415D01*
X246099Y345900D01*
X245136Y343576D01*
X243358Y341797D01*
X241034Y340835D01*
X238518Y340835D01*
G37*
%LPD*%
G36*
X429611Y569229D02*
X429611Y569229D01*
X429737Y569236D01*
X429784Y569249D01*
X429832Y569255D01*
X429951Y569297D01*
X430072Y569332D01*
X430114Y569356D01*
X430160Y569372D01*
X430266Y569441D01*
X430376Y569502D01*
X430422Y569542D01*
X430452Y569561D01*
X430486Y569596D01*
X430562Y569661D01*
X444024Y583123D01*
X444087Y583201D01*
X444157Y583274D01*
X444195Y583338D01*
X444241Y583396D01*
X444284Y583487D01*
X444336Y583573D01*
X444358Y583644D01*
X444390Y583711D01*
X444411Y583809D01*
X444442Y583905D01*
X444448Y583979D01*
X444463Y584052D01*
X444462Y584152D01*
X444470Y584252D01*
X444459Y584326D01*
X444457Y584400D01*
X444433Y584497D01*
X444418Y584597D01*
X444391Y584666D01*
X444372Y584738D01*
X444326Y584828D01*
X444289Y584921D01*
X444247Y584982D01*
X444213Y585048D01*
X444148Y585125D01*
X444090Y585207D01*
X444035Y585257D01*
X443987Y585313D01*
X443906Y585373D01*
X443832Y585440D01*
X443767Y585476D01*
X443707Y585521D01*
X443614Y585560D01*
X443527Y585609D01*
X443455Y585629D01*
X443387Y585659D01*
X443288Y585676D01*
X443191Y585704D01*
X443091Y585712D01*
X443044Y585720D01*
X443008Y585718D01*
X442947Y585723D01*
X373888Y585723D01*
X373862Y585720D01*
X373836Y585722D01*
X373689Y585700D01*
X373542Y585683D01*
X373517Y585675D01*
X373491Y585671D01*
X373353Y585616D01*
X373214Y585566D01*
X373192Y585552D01*
X373167Y585542D01*
X373046Y585457D01*
X372921Y585377D01*
X372903Y585358D01*
X372881Y585343D01*
X372782Y585233D01*
X372679Y585126D01*
X372665Y585104D01*
X372648Y585084D01*
X372576Y584954D01*
X372500Y584827D01*
X372492Y584802D01*
X372479Y584779D01*
X372439Y584636D01*
X372394Y584495D01*
X372392Y584469D01*
X372384Y584444D01*
X372365Y584200D01*
X372365Y582516D01*
X363634Y573785D01*
X356391Y573785D01*
X356291Y573774D01*
X356190Y573772D01*
X356118Y573754D01*
X356044Y573745D01*
X355950Y573712D01*
X355852Y573687D01*
X355786Y573653D01*
X355716Y573628D01*
X355632Y573573D01*
X355543Y573527D01*
X355486Y573479D01*
X355423Y573439D01*
X355354Y573367D01*
X355277Y573302D01*
X355233Y573242D01*
X355181Y573188D01*
X355130Y573102D01*
X355070Y573021D01*
X355041Y572953D01*
X355002Y572889D01*
X354972Y572793D01*
X354932Y572701D01*
X354919Y572628D01*
X354896Y572557D01*
X354888Y572457D01*
X354870Y572358D01*
X354874Y572284D01*
X354868Y572210D01*
X354883Y572110D01*
X354888Y572010D01*
X354909Y571939D01*
X354920Y571865D01*
X354957Y571772D01*
X354985Y571675D01*
X355021Y571610D01*
X355049Y571541D01*
X355106Y571459D01*
X355155Y571371D01*
X355220Y571295D01*
X355248Y571255D01*
X355266Y571239D01*
X355270Y571233D01*
X355282Y571222D01*
X355313Y571185D01*
X356838Y569661D01*
X356937Y569582D01*
X357030Y569498D01*
X357073Y569474D01*
X357111Y569444D01*
X357225Y569390D01*
X357335Y569329D01*
X357382Y569316D01*
X357426Y569295D01*
X357549Y569269D01*
X357671Y569234D01*
X357732Y569229D01*
X357766Y569222D01*
X357814Y569223D01*
X357915Y569215D01*
X429485Y569215D01*
X429611Y569229D01*
G37*
%LPC*%
G36*
X139388Y184539D02*
X139388Y184539D01*
X132529Y187380D01*
X127280Y192629D01*
X124439Y199488D01*
X124439Y206912D01*
X127280Y213771D01*
X132529Y219020D01*
X139388Y221861D01*
X146812Y221861D01*
X153671Y219020D01*
X158920Y213771D01*
X161761Y206912D01*
X161761Y199488D01*
X158920Y192629D01*
X153671Y187380D01*
X146812Y184539D01*
X139388Y184539D01*
G37*
%LPD*%
%LPC*%
G36*
X69388Y184539D02*
X69388Y184539D01*
X62529Y187380D01*
X57280Y192629D01*
X54439Y199488D01*
X54439Y206912D01*
X57280Y213771D01*
X62529Y219020D01*
X69388Y221861D01*
X76812Y221861D01*
X83671Y219020D01*
X88920Y213771D01*
X91761Y206912D01*
X91761Y199488D01*
X88920Y192629D01*
X83671Y187380D01*
X76812Y184539D01*
X69388Y184539D01*
G37*
%LPD*%
%LPC*%
G36*
X22109Y497839D02*
X22109Y497839D01*
X18374Y499386D01*
X15516Y502244D01*
X13969Y505979D01*
X13969Y510021D01*
X15516Y513756D01*
X18374Y516614D01*
X22109Y518161D01*
X41391Y518161D01*
X45126Y516614D01*
X47984Y513756D01*
X49531Y510021D01*
X49531Y505979D01*
X47984Y502244D01*
X45126Y499386D01*
X41391Y497839D01*
X22109Y497839D01*
G37*
%LPD*%
%LPC*%
G36*
X303542Y95277D02*
X303542Y95277D01*
X301218Y96240D01*
X300877Y96581D01*
X300778Y96660D01*
X300684Y96744D01*
X300642Y96768D01*
X300604Y96798D01*
X300490Y96852D01*
X300379Y96913D01*
X300333Y96926D01*
X300289Y96947D01*
X300166Y96973D01*
X300044Y97008D01*
X299983Y97013D01*
X299948Y97020D01*
X299900Y97019D01*
X299800Y97027D01*
X271378Y97027D01*
X269698Y97723D01*
X260283Y107138D01*
X259587Y108818D01*
X259587Y112856D01*
X259573Y112982D01*
X259566Y113108D01*
X259553Y113154D01*
X259547Y113202D01*
X259505Y113321D01*
X259470Y113443D01*
X259446Y113485D01*
X259430Y113530D01*
X259361Y113637D01*
X259300Y113747D01*
X259260Y113793D01*
X259241Y113823D01*
X259206Y113857D01*
X259141Y113933D01*
X258800Y114274D01*
X257837Y116598D01*
X257837Y119114D01*
X258800Y121438D01*
X260578Y123216D01*
X262902Y124179D01*
X265418Y124179D01*
X267742Y123216D01*
X269520Y121438D01*
X270483Y119114D01*
X270483Y116598D01*
X269520Y114274D01*
X269179Y113933D01*
X269100Y113834D01*
X269016Y113740D01*
X268992Y113698D01*
X268962Y113660D01*
X268908Y113546D01*
X268847Y113435D01*
X268834Y113389D01*
X268813Y113345D01*
X268787Y113222D01*
X268752Y113100D01*
X268747Y113039D01*
X268740Y113004D01*
X268741Y112956D01*
X268733Y112856D01*
X268733Y112253D01*
X268747Y112127D01*
X268754Y112001D01*
X268767Y111955D01*
X268773Y111907D01*
X268815Y111788D01*
X268850Y111666D01*
X268874Y111624D01*
X268890Y111579D01*
X268959Y111472D01*
X269020Y111362D01*
X269060Y111316D01*
X269079Y111286D01*
X269114Y111252D01*
X269143Y111218D01*
X269148Y111212D01*
X269152Y111208D01*
X269179Y111176D01*
X273736Y106619D01*
X273835Y106540D01*
X273929Y106456D01*
X273971Y106432D01*
X274009Y106402D01*
X274123Y106348D01*
X274234Y106287D01*
X274280Y106274D01*
X274324Y106253D01*
X274447Y106227D01*
X274569Y106192D01*
X274630Y106187D01*
X274665Y106180D01*
X274713Y106181D01*
X274813Y106173D01*
X299800Y106173D01*
X299926Y106187D01*
X300052Y106194D01*
X300098Y106207D01*
X300146Y106213D01*
X300265Y106255D01*
X300387Y106290D01*
X300429Y106314D01*
X300474Y106330D01*
X300581Y106399D01*
X300691Y106460D01*
X300737Y106500D01*
X300767Y106519D01*
X300801Y106554D01*
X300877Y106619D01*
X301218Y106960D01*
X303542Y107923D01*
X306058Y107923D01*
X308382Y106960D01*
X310160Y105182D01*
X311123Y102858D01*
X311123Y100342D01*
X310160Y98018D01*
X308382Y96240D01*
X306058Y95277D01*
X303542Y95277D01*
G37*
%LPD*%
%LPC*%
G36*
X55692Y247877D02*
X55692Y247877D01*
X53368Y248840D01*
X51590Y250618D01*
X50627Y252942D01*
X50627Y254143D01*
X50613Y254269D01*
X50606Y254395D01*
X50593Y254442D01*
X50587Y254490D01*
X50545Y254609D01*
X50510Y254730D01*
X50486Y254772D01*
X50470Y254818D01*
X50401Y254924D01*
X50340Y255034D01*
X50300Y255081D01*
X50281Y255111D01*
X50246Y255144D01*
X50181Y255220D01*
X23245Y282156D01*
X23146Y282235D01*
X23053Y282319D01*
X23010Y282343D01*
X22972Y282373D01*
X22858Y282427D01*
X22748Y282488D01*
X22701Y282501D01*
X22657Y282522D01*
X22534Y282548D01*
X22412Y282583D01*
X22351Y282588D01*
X22317Y282595D01*
X22269Y282594D01*
X22168Y282602D01*
X20967Y282602D01*
X18643Y283565D01*
X16865Y285343D01*
X15902Y287667D01*
X15902Y290183D01*
X16865Y292507D01*
X18643Y294285D01*
X20967Y295248D01*
X23483Y295248D01*
X25807Y294285D01*
X27585Y292507D01*
X28548Y290183D01*
X28548Y288982D01*
X28562Y288856D01*
X28569Y288730D01*
X28582Y288683D01*
X28588Y288635D01*
X28630Y288516D01*
X28665Y288395D01*
X28689Y288353D01*
X28705Y288307D01*
X28774Y288201D01*
X28835Y288091D01*
X28875Y288045D01*
X28894Y288015D01*
X28929Y287981D01*
X28994Y287905D01*
X55930Y260969D01*
X56029Y260890D01*
X56122Y260806D01*
X56165Y260782D01*
X56203Y260752D01*
X56317Y260698D01*
X56427Y260637D01*
X56474Y260624D01*
X56518Y260603D01*
X56641Y260577D01*
X56763Y260542D01*
X56824Y260537D01*
X56858Y260530D01*
X56906Y260531D01*
X57007Y260523D01*
X58208Y260523D01*
X60532Y259560D01*
X62310Y257782D01*
X63273Y255458D01*
X63273Y252942D01*
X62310Y250618D01*
X60532Y248840D01*
X58208Y247877D01*
X55692Y247877D01*
G37*
%LPD*%
%LPC*%
G36*
X222262Y330989D02*
X222262Y330989D01*
X219938Y331952D01*
X218160Y333730D01*
X217197Y336054D01*
X217197Y338570D01*
X218160Y340894D01*
X218501Y341235D01*
X218580Y341334D01*
X218664Y341428D01*
X218688Y341470D01*
X218718Y341508D01*
X218772Y341622D01*
X218833Y341733D01*
X218846Y341779D01*
X218867Y341823D01*
X218893Y341946D01*
X218928Y342068D01*
X218933Y342129D01*
X218940Y342164D01*
X218939Y342212D01*
X218947Y342312D01*
X218947Y364824D01*
X218933Y364950D01*
X218926Y365076D01*
X218913Y365122D01*
X218907Y365170D01*
X218865Y365289D01*
X218830Y365411D01*
X218806Y365453D01*
X218790Y365498D01*
X218721Y365605D01*
X218660Y365715D01*
X218620Y365761D01*
X218601Y365791D01*
X218566Y365825D01*
X218501Y365901D01*
X218160Y366242D01*
X217197Y368566D01*
X217197Y371082D01*
X218160Y373406D01*
X219938Y375184D01*
X222262Y376147D01*
X224778Y376147D01*
X227102Y375184D01*
X228880Y373406D01*
X229843Y371082D01*
X229843Y368566D01*
X228880Y366242D01*
X228539Y365901D01*
X228460Y365802D01*
X228376Y365708D01*
X228352Y365666D01*
X228322Y365628D01*
X228268Y365514D01*
X228207Y365403D01*
X228194Y365357D01*
X228173Y365313D01*
X228147Y365190D01*
X228112Y365068D01*
X228107Y365007D01*
X228100Y364972D01*
X228101Y364924D01*
X228093Y364824D01*
X228093Y342312D01*
X228107Y342186D01*
X228114Y342060D01*
X228127Y342014D01*
X228133Y341966D01*
X228175Y341847D01*
X228210Y341725D01*
X228234Y341683D01*
X228250Y341638D01*
X228319Y341531D01*
X228380Y341421D01*
X228420Y341375D01*
X228439Y341345D01*
X228474Y341311D01*
X228539Y341235D01*
X228880Y340894D01*
X229843Y338570D01*
X229843Y336054D01*
X228880Y333730D01*
X227102Y331952D01*
X224778Y330989D01*
X222262Y330989D01*
G37*
%LPD*%
%LPC*%
G36*
X421398Y302541D02*
X421398Y302541D01*
X419074Y303504D01*
X417296Y305282D01*
X416333Y307606D01*
X416333Y308807D01*
X416319Y308933D01*
X416312Y309059D01*
X416299Y309106D01*
X416293Y309154D01*
X416251Y309273D01*
X416216Y309394D01*
X416192Y309436D01*
X416176Y309482D01*
X416107Y309588D01*
X416046Y309698D01*
X416006Y309744D01*
X415987Y309774D01*
X415952Y309808D01*
X415887Y309884D01*
X406704Y319068D01*
X406644Y319115D01*
X406591Y319170D01*
X406508Y319223D01*
X406431Y319284D01*
X406362Y319317D01*
X406297Y319358D01*
X406205Y319391D01*
X406116Y319433D01*
X406041Y319449D01*
X405969Y319475D01*
X405871Y319486D01*
X405775Y319507D01*
X405699Y319505D01*
X405623Y319514D01*
X405525Y319502D01*
X405427Y319501D01*
X405352Y319482D01*
X405277Y319473D01*
X405135Y319427D01*
X405089Y319416D01*
X405071Y319407D01*
X405044Y319398D01*
X403594Y318797D01*
X401078Y318797D01*
X398754Y319760D01*
X396976Y321538D01*
X396013Y323862D01*
X396013Y326378D01*
X396976Y328702D01*
X398754Y330480D01*
X401078Y331443D01*
X403594Y331443D01*
X405918Y330480D01*
X406767Y329631D01*
X406866Y329552D01*
X406960Y329468D01*
X407002Y329444D01*
X407040Y329414D01*
X407154Y329360D01*
X407265Y329299D01*
X407311Y329286D01*
X407355Y329265D01*
X407478Y329239D01*
X407600Y329204D01*
X407661Y329199D01*
X407696Y329192D01*
X407744Y329193D01*
X407844Y329185D01*
X408084Y329185D01*
X421636Y315633D01*
X421735Y315554D01*
X421828Y315470D01*
X421871Y315446D01*
X421909Y315416D01*
X422023Y315362D01*
X422133Y315301D01*
X422180Y315288D01*
X422224Y315267D01*
X422347Y315241D01*
X422469Y315206D01*
X422530Y315201D01*
X422564Y315194D01*
X422612Y315195D01*
X422713Y315187D01*
X423914Y315187D01*
X426238Y314224D01*
X428016Y312446D01*
X428979Y310122D01*
X428979Y307606D01*
X428016Y305282D01*
X426238Y303504D01*
X423914Y302541D01*
X421398Y302541D01*
G37*
%LPD*%
%LPC*%
G36*
X34289Y535939D02*
X34289Y535939D01*
X34289Y543561D01*
X40170Y543561D01*
X41749Y543311D01*
X43270Y542816D01*
X44695Y542090D01*
X45989Y541150D01*
X47120Y540019D01*
X48060Y538725D01*
X48786Y537300D01*
X49229Y535939D01*
X34289Y535939D01*
G37*
%LPD*%
%LPC*%
G36*
X14271Y535939D02*
X14271Y535939D01*
X14714Y537300D01*
X15440Y538725D01*
X16380Y540019D01*
X17511Y541150D01*
X18805Y542090D01*
X20230Y542816D01*
X21751Y543311D01*
X23330Y543561D01*
X29211Y543561D01*
X29211Y535939D01*
X14271Y535939D01*
G37*
%LPD*%
%LPC*%
G36*
X34289Y523239D02*
X34289Y523239D01*
X34289Y530861D01*
X49229Y530861D01*
X48786Y529500D01*
X48060Y528075D01*
X47120Y526781D01*
X45989Y525650D01*
X44695Y524710D01*
X43270Y523984D01*
X41749Y523489D01*
X40170Y523239D01*
X34289Y523239D01*
G37*
%LPD*%
%LPC*%
G36*
X23330Y523239D02*
X23330Y523239D01*
X21751Y523489D01*
X20230Y523984D01*
X18805Y524710D01*
X17511Y525650D01*
X16380Y526781D01*
X15440Y528075D01*
X14714Y529500D01*
X14271Y530861D01*
X29211Y530861D01*
X29211Y523239D01*
X23330Y523239D01*
G37*
%LPD*%
G36*
X234244Y454836D02*
X234244Y454836D01*
X234248Y454836D01*
X234416Y454862D01*
X234585Y454887D01*
X234588Y454889D01*
X234592Y454889D01*
X234750Y454953D01*
X234909Y455016D01*
X234912Y455018D01*
X234916Y455020D01*
X235056Y455118D01*
X235195Y455215D01*
X235197Y455218D01*
X235201Y455220D01*
X235314Y455347D01*
X235428Y455474D01*
X235430Y455477D01*
X235433Y455480D01*
X235513Y455627D01*
X235597Y455779D01*
X235598Y455782D01*
X235600Y455786D01*
X235644Y455947D01*
X235692Y456114D01*
X235692Y456119D01*
X235693Y456122D01*
X235693Y456136D01*
X235711Y456358D01*
X235711Y470742D01*
X235692Y470911D01*
X235673Y471081D01*
X235672Y471085D01*
X235671Y471088D01*
X235614Y471248D01*
X235557Y471410D01*
X235555Y471413D01*
X235554Y471416D01*
X235461Y471561D01*
X235370Y471703D01*
X235367Y471706D01*
X235365Y471709D01*
X235241Y471829D01*
X235120Y471947D01*
X235117Y471949D01*
X235114Y471951D01*
X234966Y472040D01*
X234822Y472127D01*
X234818Y472128D01*
X234815Y472130D01*
X234653Y472182D01*
X234491Y472235D01*
X234487Y472235D01*
X234483Y472237D01*
X234315Y472250D01*
X234144Y472265D01*
X234140Y472264D01*
X234136Y472264D01*
X233966Y472239D01*
X233799Y472215D01*
X233795Y472213D01*
X233791Y472213D01*
X233630Y472149D01*
X233474Y472088D01*
X233471Y472086D01*
X233467Y472084D01*
X233328Y471987D01*
X233187Y471890D01*
X233184Y471887D01*
X233181Y471885D01*
X233069Y471760D01*
X232952Y471633D01*
X232950Y471629D01*
X232948Y471626D01*
X232940Y471613D01*
X232826Y471423D01*
X232806Y471370D01*
X232779Y471321D01*
X232770Y471287D01*
X232747Y471207D01*
X232706Y471096D01*
X232700Y471040D01*
X232684Y470986D01*
X232667Y470765D01*
X232665Y470750D01*
X232665Y470747D01*
X232665Y470742D01*
X232665Y456358D01*
X232671Y456302D01*
X232669Y456246D01*
X232691Y456129D01*
X232705Y456012D01*
X232724Y455959D01*
X232734Y455904D01*
X232817Y455698D01*
X232822Y455684D01*
X232824Y455681D01*
X232826Y455677D01*
X232918Y455534D01*
X233011Y455391D01*
X233014Y455388D01*
X233016Y455385D01*
X233139Y455268D01*
X233262Y455149D01*
X233265Y455147D01*
X233268Y455144D01*
X233414Y455058D01*
X233561Y454970D01*
X233565Y454969D01*
X233568Y454967D01*
X233730Y454916D01*
X233893Y454863D01*
X233897Y454863D01*
X233900Y454862D01*
X234070Y454849D01*
X234240Y454836D01*
X234244Y454836D01*
G37*
G36*
X304109Y620026D02*
X304109Y620026D01*
X304210Y620028D01*
X304282Y620046D01*
X304356Y620055D01*
X304450Y620088D01*
X304548Y620113D01*
X304614Y620147D01*
X304684Y620172D01*
X304768Y620227D01*
X304857Y620273D01*
X304914Y620321D01*
X304977Y620361D01*
X305046Y620433D01*
X305123Y620498D01*
X305167Y620558D01*
X305219Y620612D01*
X305270Y620698D01*
X305330Y620779D01*
X305359Y620847D01*
X305398Y620911D01*
X305428Y621007D01*
X305468Y621099D01*
X305481Y621172D01*
X305504Y621243D01*
X305512Y621343D01*
X305530Y621442D01*
X305526Y621516D01*
X305532Y621590D01*
X305517Y621690D01*
X305512Y621790D01*
X305491Y621861D01*
X305480Y621935D01*
X305443Y622028D01*
X305415Y622125D01*
X305379Y622190D01*
X305351Y622259D01*
X305294Y622341D01*
X305245Y622429D01*
X305180Y622505D01*
X305152Y622545D01*
X305126Y622569D01*
X305087Y622615D01*
X303562Y624139D01*
X303463Y624218D01*
X303370Y624302D01*
X303327Y624326D01*
X303289Y624356D01*
X303175Y624410D01*
X303065Y624471D01*
X303018Y624484D01*
X302974Y624505D01*
X302851Y624531D01*
X302729Y624566D01*
X302669Y624571D01*
X302634Y624578D01*
X302585Y624577D01*
X302485Y624585D01*
X297608Y624585D01*
X297483Y624571D01*
X297356Y624564D01*
X297310Y624551D01*
X297262Y624545D01*
X297143Y624503D01*
X297021Y624468D01*
X296979Y624444D01*
X296934Y624428D01*
X296827Y624359D01*
X296717Y624298D01*
X296671Y624258D01*
X296641Y624239D01*
X296607Y624204D01*
X296531Y624139D01*
X295769Y623377D01*
X295752Y623357D01*
X295733Y623340D01*
X295645Y623221D01*
X295552Y623104D01*
X295541Y623080D01*
X295525Y623059D01*
X295467Y622923D01*
X295403Y622789D01*
X295398Y622763D01*
X295387Y622739D01*
X295361Y622593D01*
X295330Y622448D01*
X295330Y622422D01*
X295326Y622396D01*
X295333Y622248D01*
X295336Y622100D01*
X295342Y622074D01*
X295344Y622048D01*
X295385Y621906D01*
X295421Y621762D01*
X295433Y621739D01*
X295440Y621713D01*
X295512Y621584D01*
X295580Y621452D01*
X295598Y621432D01*
X295610Y621409D01*
X295769Y621223D01*
X296531Y620461D01*
X296630Y620382D01*
X296724Y620298D01*
X296766Y620274D01*
X296804Y620244D01*
X296918Y620190D01*
X297029Y620129D01*
X297075Y620116D01*
X297119Y620095D01*
X297242Y620069D01*
X297364Y620034D01*
X297425Y620029D01*
X297460Y620022D01*
X297508Y620023D01*
X297608Y620015D01*
X304009Y620015D01*
X304109Y620026D01*
G37*
G36*
X15796Y10166D02*
X15796Y10166D01*
X15847Y10164D01*
X15969Y10186D01*
X16093Y10201D01*
X16140Y10218D01*
X16190Y10227D01*
X16304Y10276D01*
X16421Y10318D01*
X16463Y10345D01*
X16509Y10366D01*
X16609Y10440D01*
X16714Y10507D01*
X16749Y10543D01*
X16789Y10573D01*
X16869Y10668D01*
X16956Y10758D01*
X16982Y10801D01*
X17014Y10839D01*
X17071Y10950D01*
X17135Y11057D01*
X17150Y11105D01*
X17173Y11150D01*
X17203Y11270D01*
X17241Y11389D01*
X17245Y11439D01*
X17257Y11488D01*
X17259Y11612D01*
X17269Y11736D01*
X17261Y11786D01*
X17262Y11836D01*
X17236Y11958D01*
X17217Y12081D01*
X17198Y12128D01*
X17188Y12177D01*
X17134Y12289D01*
X17088Y12405D01*
X17060Y12446D01*
X17038Y12492D01*
X16960Y12589D01*
X16889Y12691D01*
X16852Y12725D01*
X16821Y12764D01*
X16723Y12841D01*
X16631Y12924D01*
X16586Y12949D01*
X16547Y12980D01*
X16329Y13091D01*
X16079Y13195D01*
X12761Y16513D01*
X12683Y16575D01*
X12610Y16645D01*
X12546Y16683D01*
X12488Y16729D01*
X12397Y16772D01*
X12311Y16824D01*
X12240Y16846D01*
X12173Y16878D01*
X12075Y16899D01*
X11979Y16930D01*
X11905Y16936D01*
X11832Y16952D01*
X11732Y16950D01*
X11632Y16958D01*
X11558Y16947D01*
X11484Y16946D01*
X11387Y16921D01*
X11287Y16906D01*
X11218Y16879D01*
X11146Y16861D01*
X11057Y16815D01*
X10963Y16777D01*
X10902Y16735D01*
X10836Y16701D01*
X10760Y16636D01*
X10677Y16579D01*
X10627Y16523D01*
X10571Y16475D01*
X10511Y16394D01*
X10444Y16320D01*
X10408Y16255D01*
X10363Y16195D01*
X10324Y16103D01*
X10275Y16015D01*
X10255Y15943D01*
X10225Y15875D01*
X10208Y15776D01*
X10180Y15679D01*
X10172Y15579D01*
X10164Y15532D01*
X10166Y15496D01*
X10161Y15436D01*
X10161Y11684D01*
X10164Y11658D01*
X10162Y11632D01*
X10184Y11485D01*
X10201Y11338D01*
X10209Y11313D01*
X10213Y11287D01*
X10268Y11149D01*
X10318Y11010D01*
X10332Y10988D01*
X10342Y10963D01*
X10427Y10842D01*
X10507Y10717D01*
X10526Y10699D01*
X10541Y10677D01*
X10651Y10578D01*
X10758Y10475D01*
X10780Y10461D01*
X10800Y10444D01*
X10930Y10372D01*
X11057Y10296D01*
X11082Y10288D01*
X11105Y10275D01*
X11248Y10235D01*
X11389Y10190D01*
X11415Y10188D01*
X11440Y10180D01*
X11684Y10161D01*
X15746Y10161D01*
X15796Y10166D01*
G37*
%LPC*%
G36*
X462374Y126699D02*
X462374Y126699D01*
X462374Y133577D01*
X462501Y133557D01*
X463861Y133115D01*
X465134Y132467D01*
X466291Y131626D01*
X467301Y130616D01*
X468142Y129459D01*
X468790Y128186D01*
X469232Y126826D01*
X469252Y126699D01*
X462374Y126699D01*
G37*
%LPD*%
%LPC*%
G36*
X437374Y126699D02*
X437374Y126699D01*
X437374Y133577D01*
X437501Y133557D01*
X438861Y133115D01*
X440134Y132467D01*
X441291Y131626D01*
X442301Y130616D01*
X443142Y129459D01*
X443790Y128186D01*
X444232Y126826D01*
X444252Y126699D01*
X437374Y126699D01*
G37*
%LPD*%
%LPC*%
G36*
X437374Y29699D02*
X437374Y29699D01*
X437374Y36577D01*
X437501Y36557D01*
X438861Y36115D01*
X440134Y35467D01*
X441291Y34626D01*
X442301Y33616D01*
X443142Y32459D01*
X443790Y31186D01*
X444232Y29826D01*
X444252Y29699D01*
X437374Y29699D01*
G37*
%LPD*%
%LPC*%
G36*
X462374Y29699D02*
X462374Y29699D01*
X462374Y36577D01*
X462501Y36557D01*
X463861Y36115D01*
X465134Y35467D01*
X466291Y34626D01*
X467301Y33616D01*
X468142Y32459D01*
X468790Y31186D01*
X469232Y29826D01*
X469252Y29699D01*
X462374Y29699D01*
G37*
%LPD*%
%LPC*%
G36*
X451498Y126699D02*
X451498Y126699D01*
X451518Y126826D01*
X451960Y128186D01*
X452608Y129459D01*
X453449Y130616D01*
X454459Y131626D01*
X455616Y132467D01*
X456889Y133115D01*
X458249Y133557D01*
X458376Y133577D01*
X458376Y126699D01*
X451498Y126699D01*
G37*
%LPD*%
%LPC*%
G36*
X426498Y126699D02*
X426498Y126699D01*
X426518Y126826D01*
X426960Y128186D01*
X427608Y129459D01*
X428449Y130616D01*
X429459Y131626D01*
X430616Y132467D01*
X431889Y133115D01*
X433249Y133557D01*
X433376Y133577D01*
X433376Y126699D01*
X426498Y126699D01*
G37*
%LPD*%
%LPC*%
G36*
X437374Y122701D02*
X437374Y122701D01*
X444252Y122701D01*
X444232Y122574D01*
X443790Y121214D01*
X443142Y119941D01*
X442301Y118784D01*
X441291Y117774D01*
X440134Y116933D01*
X438861Y116285D01*
X437501Y115843D01*
X437374Y115823D01*
X437374Y122701D01*
G37*
%LPD*%
%LPC*%
G36*
X462374Y122701D02*
X462374Y122701D01*
X469252Y122701D01*
X469232Y122574D01*
X468790Y121214D01*
X468142Y119941D01*
X467301Y118784D01*
X466291Y117774D01*
X465134Y116933D01*
X463861Y116285D01*
X462501Y115843D01*
X462374Y115823D01*
X462374Y122701D01*
G37*
%LPD*%
%LPC*%
G36*
X426498Y29699D02*
X426498Y29699D01*
X426518Y29826D01*
X426960Y31186D01*
X427608Y32459D01*
X428449Y33616D01*
X429459Y34626D01*
X430616Y35467D01*
X431889Y36115D01*
X433249Y36557D01*
X433376Y36577D01*
X433376Y29699D01*
X426498Y29699D01*
G37*
%LPD*%
%LPC*%
G36*
X451498Y29699D02*
X451498Y29699D01*
X451518Y29826D01*
X451960Y31186D01*
X452608Y32459D01*
X453449Y33616D01*
X454459Y34626D01*
X455616Y35467D01*
X456889Y36115D01*
X458249Y36557D01*
X458376Y36577D01*
X458376Y29699D01*
X451498Y29699D01*
G37*
%LPD*%
%LPC*%
G36*
X462374Y25701D02*
X462374Y25701D01*
X469252Y25701D01*
X469232Y25574D01*
X468790Y24214D01*
X468142Y22941D01*
X467301Y21784D01*
X466291Y20774D01*
X465134Y19933D01*
X463861Y19285D01*
X462501Y18843D01*
X462374Y18823D01*
X462374Y25701D01*
G37*
%LPD*%
%LPC*%
G36*
X437374Y25701D02*
X437374Y25701D01*
X444252Y25701D01*
X444232Y25574D01*
X443790Y24214D01*
X443142Y22941D01*
X442301Y21784D01*
X441291Y20774D01*
X440134Y19933D01*
X438861Y19285D01*
X437501Y18843D01*
X437374Y18823D01*
X437374Y25701D01*
G37*
%LPD*%
%LPC*%
G36*
X433249Y115843D02*
X433249Y115843D01*
X431889Y116285D01*
X430616Y116933D01*
X429459Y117774D01*
X428449Y118784D01*
X427608Y119941D01*
X426960Y121214D01*
X426518Y122574D01*
X426498Y122701D01*
X433376Y122701D01*
X433376Y115823D01*
X433249Y115843D01*
G37*
%LPD*%
%LPC*%
G36*
X458249Y115843D02*
X458249Y115843D01*
X456889Y116285D01*
X455616Y116933D01*
X454459Y117774D01*
X453449Y118784D01*
X452608Y119941D01*
X451960Y121214D01*
X451518Y122574D01*
X451498Y122701D01*
X458376Y122701D01*
X458376Y115823D01*
X458249Y115843D01*
G37*
%LPD*%
%LPC*%
G36*
X458249Y18843D02*
X458249Y18843D01*
X456889Y19285D01*
X455616Y19933D01*
X454459Y20774D01*
X453449Y21784D01*
X452608Y22941D01*
X451960Y24214D01*
X451518Y25574D01*
X451498Y25701D01*
X458376Y25701D01*
X458376Y18823D01*
X458249Y18843D01*
G37*
%LPD*%
%LPC*%
G36*
X433249Y18843D02*
X433249Y18843D01*
X431889Y19285D01*
X430616Y19933D01*
X429459Y20774D01*
X428449Y21784D01*
X427608Y22941D01*
X426960Y24214D01*
X426518Y25574D01*
X426498Y25701D01*
X433376Y25701D01*
X433376Y18823D01*
X433249Y18843D01*
G37*
%LPD*%
G36*
X359761Y581929D02*
X359761Y581929D01*
X359887Y581936D01*
X359934Y581949D01*
X359982Y581955D01*
X360101Y581997D01*
X360222Y582032D01*
X360264Y582056D01*
X360310Y582072D01*
X360416Y582141D01*
X360526Y582202D01*
X360572Y582242D01*
X360602Y582261D01*
X360636Y582296D01*
X360712Y582361D01*
X361474Y583123D01*
X361537Y583201D01*
X361607Y583274D01*
X361645Y583338D01*
X361691Y583396D01*
X361734Y583487D01*
X361786Y583573D01*
X361808Y583644D01*
X361840Y583711D01*
X361861Y583809D01*
X361892Y583905D01*
X361898Y583979D01*
X361913Y584052D01*
X361912Y584152D01*
X361920Y584252D01*
X361909Y584326D01*
X361907Y584400D01*
X361883Y584497D01*
X361868Y584597D01*
X361841Y584666D01*
X361822Y584738D01*
X361776Y584828D01*
X361739Y584921D01*
X361697Y584982D01*
X361663Y585048D01*
X361598Y585125D01*
X361540Y585207D01*
X361485Y585257D01*
X361437Y585313D01*
X361356Y585373D01*
X361282Y585440D01*
X361217Y585476D01*
X361157Y585521D01*
X361064Y585560D01*
X360977Y585609D01*
X360905Y585629D01*
X360837Y585659D01*
X360738Y585676D01*
X360641Y585704D01*
X360541Y585712D01*
X360494Y585720D01*
X360458Y585718D01*
X360397Y585723D01*
X357153Y585723D01*
X357053Y585712D01*
X356952Y585710D01*
X356880Y585692D01*
X356806Y585683D01*
X356712Y585650D01*
X356614Y585625D01*
X356548Y585591D01*
X356478Y585566D01*
X356394Y585511D01*
X356305Y585465D01*
X356248Y585417D01*
X356185Y585377D01*
X356116Y585305D01*
X356039Y585240D01*
X355995Y585180D01*
X355943Y585126D01*
X355892Y585040D01*
X355832Y584959D01*
X355803Y584891D01*
X355764Y584827D01*
X355734Y584731D01*
X355694Y584639D01*
X355681Y584566D01*
X355658Y584495D01*
X355650Y584395D01*
X355632Y584296D01*
X355636Y584222D01*
X355630Y584148D01*
X355645Y584048D01*
X355650Y583948D01*
X355671Y583877D01*
X355682Y583803D01*
X355719Y583710D01*
X355747Y583613D01*
X355783Y583548D01*
X355811Y583479D01*
X355868Y583397D01*
X355917Y583309D01*
X355982Y583233D01*
X356010Y583193D01*
X356036Y583169D01*
X356076Y583123D01*
X356838Y582361D01*
X356937Y582282D01*
X357030Y582198D01*
X357073Y582174D01*
X357111Y582144D01*
X357225Y582090D01*
X357335Y582029D01*
X357382Y582016D01*
X357426Y581995D01*
X357549Y581969D01*
X357671Y581934D01*
X357732Y581929D01*
X357766Y581922D01*
X357814Y581923D01*
X357915Y581915D01*
X359635Y581915D01*
X359761Y581929D01*
G37*
D10*
X435375Y27700D03*
X435375Y124700D03*
X460375Y27700D03*
X460375Y124700D03*
D11*
X39370Y533400D02*
X24130Y533400D01*
X24130Y508000D02*
X39370Y508000D01*
X39370Y482600D02*
X24130Y482600D01*
X24130Y457200D02*
X39370Y457200D01*
D12*
X434086Y252857D03*
D13*
X430001Y248772D01*
X311150Y248772D02*
X259228Y248772D01*
X239776Y268224D01*
D12*
X69088Y268224D03*
D13*
X239776Y268224D01*
X311150Y248772D02*
X331322Y228600D01*
X425450Y228600D01*
X430001Y233151D01*
X430001Y248772D01*
D12*
X422656Y308864D03*
X402336Y325120D03*
D13*
X406400Y325120D01*
X422656Y308864D01*
D12*
X336550Y247650D03*
D13*
X342900Y241300D01*
X406400Y241300D01*
X419100Y254000D01*
D12*
X419100Y254000D03*
X158750Y317500D03*
D13*
X279400Y317500D02*
X285750Y311150D01*
X279400Y317500D02*
X158750Y317500D01*
X285750Y311150D02*
X387350Y311150D01*
X400050Y298450D01*
X400050Y273050D01*
D12*
X400050Y273050D03*
X239776Y347158D03*
D13*
X239776Y477774D01*
D12*
X243840Y276352D03*
X162560Y124206D03*
D14*
X196850Y124206D01*
X203200Y117856D01*
D12*
X203200Y117856D03*
X211328Y276352D03*
D14*
X243840Y276352D01*
D12*
X196850Y485902D03*
X239586Y490157D03*
D13*
X211952Y485902D02*
X196850Y485902D01*
X211952Y485902D02*
X216206Y490157D01*
X227394Y490157D01*
X239586Y490157D01*
X227394Y490157D02*
X239776Y477774D01*
D12*
X374650Y146050D03*
X387350Y146050D03*
X400050Y146050D03*
X412750Y146050D03*
X425450Y146050D03*
X419100Y136525D03*
X406400Y136525D03*
X393700Y136525D03*
X381000Y136525D03*
X374650Y165100D03*
X387350Y165100D03*
X400050Y165100D03*
X412750Y165100D03*
X425450Y165100D03*
X419100Y174625D03*
X406400Y174625D03*
X393700Y174625D03*
X361950Y104775D03*
X258763Y76200D03*
X152400Y82550D03*
X381000Y174625D03*
X476250Y571500D03*
X476250Y558800D03*
X476250Y546100D03*
X476250Y533400D03*
X476250Y520700D03*
X466725Y565150D03*
X466725Y552450D03*
X466725Y539750D03*
X466725Y527050D03*
X63500Y552450D03*
X152400Y495300D03*
X285750Y203200D03*
X304800Y349250D03*
X158750Y342900D03*
X38100Y323850D03*
X298450Y120650D03*
D14*
X292100Y120650D01*
X215900Y133350D02*
X209550Y139700D01*
X114300Y139700D01*
X101600Y127000D01*
D12*
X101600Y95250D03*
D14*
X279400Y133350D02*
X292100Y120650D01*
X279400Y133350D02*
X215900Y133350D01*
X101600Y127000D02*
X101600Y95250D01*
D12*
X99314Y34798D03*
D14*
X99314Y26670D01*
X109728Y16256D01*
X158496Y16256D01*
X182880Y40640D01*
X182880Y97536D02*
X195072Y109728D01*
X235712Y109728D01*
X243840Y117856D01*
D12*
X243840Y117856D03*
D14*
X182880Y97536D02*
X182880Y40640D01*
D12*
X264160Y117856D03*
D14*
X264160Y109728D01*
X272288Y101600D01*
X304800Y101600D01*
D12*
X304800Y101600D03*
X127000Y412750D03*
D13*
X131763Y417513D01*
D12*
X131763Y547688D03*
D13*
X131763Y417513D01*
D12*
X90488Y350838D03*
D13*
X90488Y279400D01*
D12*
X90488Y279400D03*
X22225Y288925D03*
D13*
X56950Y254200D01*
D12*
X56950Y254200D03*
X296672Y548640D03*
D13*
X317500Y569468D01*
D12*
X317500Y583883D03*
D13*
X317500Y569468D01*
D12*
X223520Y337312D03*
D14*
X223520Y369824D01*
D12*
X223520Y369824D03*
D14*
X447040Y487172D02*
X447784Y218422D01*
D12*
X447040Y487172D03*
X393700Y88900D03*
D14*
X393700Y114300D01*
X387350Y120650D01*
X368300Y120650D01*
X349250Y139700D01*
X355600Y209550D02*
X438912Y209550D01*
X447784Y218422D01*
X355600Y209550D02*
X349250Y203200D01*
X349250Y139700D01*
D12*
X292100Y628650D03*
D13*
X304800Y628650D01*
X355600Y577850D01*
X361950Y577850D01*
X368300Y584200D02*
X368300Y615950D01*
X368300Y584200D02*
X361950Y577850D01*
D12*
X368300Y615950D03*
X292100Y641350D03*
D13*
X298450Y647700D01*
X298450Y736600D01*
X304800Y742950D02*
X374650Y742950D01*
X304800Y742950D02*
X298450Y736600D01*
D12*
X374650Y742950D03*
X292100Y615950D03*
D13*
X304800Y615950D01*
X355600Y565150D01*
X431800Y565150D01*
X450850Y584200D02*
X450850Y615950D01*
X450850Y584200D02*
X431800Y565150D01*
D12*
X450850Y615950D03*
X228600Y476250D03*
D13*
X228600Y450850D01*
D12*
X228600Y450850D03*
X273050Y762000D03*
D13*
X284163Y750888D01*
X284163Y563563D02*
X279400Y558800D01*
X284163Y563563D02*
X284163Y750888D01*
X279400Y558800D02*
X104775Y558800D01*
X101600Y555625D01*
X101600Y463550D01*
X95250Y457200D01*
X31750Y457200D01*
X114300Y725488D02*
X119063Y730250D01*
X114300Y725488D02*
X114300Y584200D01*
D12*
X119063Y730250D03*
D13*
X114300Y584200D02*
X82550Y552450D01*
X82550Y495300D01*
X69850Y482600D01*
X31750Y482600D01*
M02*
